<svg xmlns="http://www.w3.org/2000/svg" xmlns:xlink="http://www.w3.org/1999/xlink" width="320" height="800" viewBox="0 0 320 800">
    <defs>
        <path id="a" d="M0 .095h47.905v47.719H0z"/>
        <path id="c" d="M13.725.003c3.658.051 6.386.917 8.643 2.514L22.732.64h6.758l-1.964 9.198L35.47.64h6.711l3.652 6.772L51.083.64h7.806L47.842 13.681 46.2 21.825h-6.665l1.871-9.105-3.423-5.903-4.474 4.896 6.026 10.112H31.5l-4.704-8.419-1.598 8.42h-6.756l.959-4.85c-1.827 4.163-5.25 5.536-9.906 5.536-3.923 0-7.528-1.188-9.491-3.336v-.01l3.694-4.341c1.597 1.556 4.062 2.379 6.664 2.379 1.826 0 2.922-.686 2.967-1.602.046-1.555-2.647-1.784-5.112-2.47-2.785-.778-5.752-2.653-4.976-6.589C3.825 3.57 6.446.108 13.064.003h.661zM22.05 3.98l-2.694 3.157C16.48 5.537 14.562 5.17 12.508 5.17c-1.141 0-2.42.274-2.602 1.372-.138.96.776 1.19 2.693 1.602 3.515.731 7.076 1.693 7.532 5.307l1.918-9.471zM61.606.729c.556 0 .978.204 1.27.614.29.41.361.903.214 1.481-.148.578-.472 1.072-.971 1.482-.5.41-1.027.616-1.582.616-.562 0-.988-.205-1.28-.614-.29-.41-.362-.904-.215-1.484.148-.578.472-1.072.972-1.481.5-.41 1.032-.614 1.592-.614zm-.076.289c-.474 0-.923.176-1.35.528a2.406 2.406 0 0 0-.829 1.278c-.127.5-.068.926.177 1.28.246.353.606.53 1.08.53.473 0 .922-.177 1.346-.53.424-.354.7-.78.827-1.28.127-.498.069-.923-.175-1.277-.244-.353-.602-.53-1.076-.53zm.035.614c.51 0 .704.243.58.728-.09.353-.26.565-.511.636.201.054.27.207.206.46l-.134.52h-.477l.11-.433c.057-.22-.026-.33-.247-.33h-.608l-.195.764h-.478l.598-2.345h1.156zm-.148.421h-.638l-.188.738h.609c.252 0 .41-.125.473-.374.062-.242-.023-.364-.256-.364z"/>
    </defs>
    <g fill="none" fill-rule="evenodd">
        <path fill="#F1F2FA" fill-rule="nonzero" d="M0 800h320V0H0z"/>
        <path fill="#505050" fill-opacity=".15" fill-rule="nonzero" d="M16 383h304v1H16z"/>
        <text fill="#000" fill-opacity=".87" font-family="Roboto-Regular, Roboto" font-size="16" transform="translate(0 136)">
            <tspan x="16" y="28">Sobre</tspan>
        </text>
        <path fill="#000" fill-opacity=".6" fill-rule="nonzero" d="M296.333 158.863l-4.293 4.497a.968.968 0 0 1-1.414 0 1.083 1.083 0 0 1 0-1.482l5-5.238a.968.968 0 0 1 1.414 0l5 5.238c.391.41.391 1.073 0 1.482a.968.968 0 0 1-1.414 0l-4.293-4.497z"/>
        <text fill="#000" fill-opacity=".6" font-family="Roboto-Medium, Roboto" font-size="14" font-weight="400" transform="translate(0 136)">
            <tspan x="16" y="61">Nossa história</tspan> <tspan x="16" y="91">Imprensa</tspan> <tspan x="16" y="121">Prêmios conquistados</tspan> <tspan x="16" y="151">Credenciamento</tspan> <tspan x="16" y="181">Trabalhe com a gente</tspan> <tspan x="16" y="211">Promoção</tspan>
        </text>
        <path fill="#505050" fill-opacity=".15" fill-rule="nonzero" d="M16 431h304v1H16z"/>
        <text fill="#000" fill-opacity=".87" font-family="Roboto-Regular, Roboto" font-size="16" transform="translate(0 384)">
            <tspan x="16" y="28">Nossas responsabilidades</tspan>
        </text>
        <path fill="#000" fill-opacity=".6" fill-rule="nonzero" d="M296.333 409.137l-4.293-4.497a.968.968 0 0 0-1.414 0c-.39.41-.39 1.073 0 1.482l5 5.238a.968.968 0 0 0 1.414 0l5-5.238c.391-.41.391-1.073 0-1.482a.968.968 0 0 0-1.414 0l-4.293 4.497z"/>
        <g>
            <path fill="#505050" fill-opacity=".15" fill-rule="nonzero" d="M16 479h304v1H16z"/>
            <text fill="#000" fill-opacity=".87" font-family="Roboto-Regular, Roboto" font-size="16" transform="translate(0 432)">
                <tspan x="16" y="28">Ajuda</tspan>
            </text>
            <path fill="#000" fill-opacity=".6" fill-rule="nonzero" d="M296.333 457.137l-4.293-4.497a.968.968 0 0 0-1.414 0c-.39.41-.39 1.073 0 1.482l5 5.238a.968.968 0 0 0 1.414 0l5-5.238c.391-.41.391-1.073 0-1.482a.968.968 0 0 0-1.414 0l-4.293 4.497z"/>
        </g>
        <g fill="#000" fill-opacity=".87" font-family="Roboto-Regular, Roboto" font-size="16">
            <text transform="translate(0 480)">
                <tspan x="16" y="28">SKY Empresas</tspan>
            </text>
        </g>
        <g fill="#DB524F" fill-opacity=".99" font-family="Roboto-Bold, Roboto" font-size="16" font-weight="bold">
            <text transform="translate(16 81)">
                <tspan x="64" y="15">Baixe no seu celular o app </tspan> <tspan x="64" y="37">Minha SKY e divirta-se. </tspan>
            </text>
        </g>
        <g>
            <g transform="translate(16 81.091)">
                <mask id="b" fill="#fff">
                    <use xlink:href="#a"/>
                </mask>
                <path fill="#E1413E" d="M47.905 35.742c0 6.64-5.454 12.072-12.12 12.072H12.12C5.454 47.814 0 42.381 0 35.742V12.167C0 5.527 5.454.095 12.12.095h23.666c6.665 0 12.119 5.432 12.119 12.072v23.575z" mask="url(#b)"/>
            </g>
            <path fill="#FFF" d="M33.894 108.151c-1.727-1.005-2.878-1.235-4.112-1.235-.686 0-1.453.172-1.563.862-.082.603.466.747 1.618 1.006 2.11.46 4.248 1.063 4.522 3.334l1.152-5.95-1.617 1.983zm15.9.173l3.152-4.254h4.688L51 112.262l-.987 5.116h-4.002l1.124-5.72-2.056-3.708-2.686 3.076 3.618 6.352h-4.824l-2.825-5.289-.96 5.289h-4.057l.576-3.047c-1.097 2.616-3.152 3.478-5.948 3.478-2.358 0-4.524-.747-5.702-2.098l2.22-2.731c.96.977 2.44 1.495 4.002 1.495 1.097 0 1.755-.431 1.782-1.007.027-.976-1.59-1.12-3.07-1.551-1.672-.489-3.454-1.667-2.988-4.14.356-1.897 1.974-4.11 6.085-4.11 2.303 0 4.003.546 5.4 1.581l.22-1.178h4.058l-1.18 5.777 4.771-5.777h4.03l2.193 4.254zM31.732 100.104l.765-3.94-.036-.013-1.064 1.68-.777 1.166h-1.386l-.335-1.226-.394-1.62-.048.036-.765 3.917h-1.793l1.614-8.287h1.625l.634 2.405.562 2.489h.048l1.506-2.489 1.553-2.405h1.698l-1.614 8.287zM35.952 93.306l.286-1.489h1.674l-.287 1.489h-1.673zm-1.327 6.798l1.147-5.894h1.674l-1.148 5.894h-1.673zM40.733 100.104l.681-3.488c.064-.302.028-.528-.107-.68a.703.703 0 0 0-.55-.225c-.247 0-.466.075-.658.226-.19.15-.319.377-.382.679l-.682 3.488h-1.673l1.16-5.905h1.673l-.084.44h.024c.183-.135.399-.252.646-.351.247-.1.482-.149.705-.149.294 0 .562.046.8.137.24.091.435.226.587.405.15.178.254.4.31.667.056.266.048.57-.024.91l-.753 3.846h-1.673zM46.829 100.116l.681-3.488c.12-.604-.1-.905-.657-.905-.247 0-.466.075-.658.226-.19.15-.319.377-.382.679l-.681 3.488h-1.674l1.721-8.668h1.674l-.646 3.18.048.011c.183-.135.395-.25.634-.345.239-.095.47-.143.693-.143.295 0 .562.046.8.137.24.091.435.226.587.405.15.178.255.4.31.666.056.267.048.57-.023.911l-.73 3.846H46.83zM51.539 97.925a.83.83 0 0 0 .143.483c.095.139.27.208.526.208a.775.775 0 0 0 .568-.232c.155-.155.28-.341.376-.56.096-.218.163-.444.203-.678.04-.235.06-.431.06-.59 0-.11-.008-.218-.024-.321a.762.762 0 0 0-.09-.268.463.463 0 0 0-.19-.179.713.713 0 0 0-.33-.065.813.813 0 0 0-.597.238c-.16.159-.287.353-.383.583a3.18 3.18 0 0 0-.203.72c-.04.25-.06.47-.06.661m1.076-3.774c.183 0 .387.036.61.107.223.072.414.199.574.381l.024-.012.083-.417h1.674l-1.148 5.894h-1.673l.095-.464-.035-.012a1.885 1.885 0 0 1-.598.381c-.12.048-.24.088-.359.12-.12.03-.227.047-.322.047-.36 0-.652-.054-.879-.16a1.292 1.292 0 0 1-.526-.43 1.58 1.58 0 0 1-.251-.607 3.634 3.634 0 0 1-.066-.696c0-.453.046-.921.138-1.405a4.56 4.56 0 0 1 .466-1.334c.219-.405.508-.738.866-1 .359-.262.801-.393 1.327-.393"/>
        </g>
        <g>
            <g transform="translate(16 16.75)">
                <mask id="d" fill="#fff">
                    <use xlink:href="#c"/>
                </mask>
                <g fill="#000" fill-opacity=".6" mask="url(#d)">
                    <path d="M0-.634h63.238v24H0z"/>
                </g>
            </g>
            <path fill="#505050" fill-opacity=".15" fill-rule="nonzero" d="M0 56h320v1H0zM0 0h320v1H0z"/>
            <g fill="#000" fill-opacity=".6">
                <path d="M299.673 25a.67.67 0 0 1-.67-.667c0-.368.296-.666.664-.666h.006a.666.666 0 1 1 0 1.333zm-3.646.971c-.748 0-1.441.418-1.784 1.101a1.997 1.997 0 0 0 .372 2.313 1.995 1.995 0 0 0 2.313.372 1.996 1.996 0 0 0 1.08-2.079 1.988 1.988 0 0 0-1.981-1.707zm0 5.335a3.328 3.328 0 0 1-2.355-.978 3.327 3.327 0 0 1-.62-3.856 3.326 3.326 0 0 1 3.466-1.798 3.314 3.314 0 0 1 2.808 2.809 3.337 3.337 0 0 1-3.298 3.823zM292.668 22A2.67 2.67 0 0 0 290 24.667v6.666A2.67 2.67 0 0 0 292.667 34h6.666A2.67 2.67 0 0 0 302 31.333v-6.666A2.67 2.67 0 0 0 299.333 22h-6.666zm6.666 13.333h-6.666c-2.206 0-4-1.794-4-4v-6.666c0-2.206 1.794-4 4-4h6.666c2.206 0 4 1.794 4 4v6.666c0 2.206-1.794 4-4 4zM263.167 26.8v2.068l1.818-1.034-1.818-1.034zm-.667 3.88a.668.668 0 0 1-.666-.666v-4.36a.665.665 0 0 1 .996-.58l3.833 2.18a.665.665 0 0 1 0 1.159l-3.833 2.18a.667.667 0 0 1-.33.087zm1.5-7.346c-1.808 0-4.782.076-5.56.284-.399.112-.717.44-.82.85a18.794 18.794 0 0 0-.286 3.362 18.784 18.784 0 0 0 .296 3.439c.098.332.415.646.813.755.775.207 3.749.283 5.557.283 1.81 0 4.782-.076 5.562-.284.398-.113.716-.44.818-.851.192-1.068.291-2.206.287-3.336a18.713 18.713 0 0 0-.291-3.413 1.193 1.193 0 0 0-.824-.835c-.853-.208-4.298-.254-5.552-.254zm0 10.306c-.478 0-4.708-.01-5.905-.33a2.538 2.538 0 0 1-1.763-1.74 19.938 19.938 0 0 1-.332-3.741c-.006-1.21.101-2.439.318-3.64.228-.917.902-1.612 1.768-1.857 1.206-.323 5.436-.332 5.914-.332.478 0 4.702.008 5.892.299a2.536 2.536 0 0 1 1.791 1.863 19.98 19.98 0 0 1 .317 3.676 20.027 20.027 0 0 1-.317 3.614c-.228.917-.902 1.612-1.768 1.856-1.206.323-5.436.332-5.915.332z"/>
                <path fill-rule="nonzero" d="M238.948 21.462c.503-.355 1.178.104 1.032.704a5.824 5.824 0 0 1-1.33 2.52c.01.108.015.216.016.326 0 7.917-7.63 11.984-14.322 8.26-.614-.34-.351-1.278.35-1.25a7.083 7.083 0 0 0 3.25-.646c-1.47-.907-2.41-2.108-2.872-3.528-.476-1.467-.407-3.008-.01-4.472.12-.442.243-.776.33-.972a.666.666 0 0 1 1.154-.112 6.437 6.437 0 0 0 4.787 2.724 3.658 3.658 0 0 1 2.35-3.442 3.649 3.649 0 0 1 3.738.69 6.595 6.595 0 0 0 1.527-.802zm-1.517 2.206a.666.666 0 0 1-.695-.2 2.317 2.317 0 0 0-2.577-.647 2.326 2.326 0 0 0-1.492 2.21v.669a.667.667 0 0 1-.65.667 7.766 7.766 0 0 1-5.747-2.328c-.263 1.139-.282 2.313.07 3.396.451 1.389 1.484 2.516 3.265 3.309a.668.668 0 0 1 .103 1.162 8.419 8.419 0 0 1-2.42 1.133c5.12 1.348 10.045-2.055 10.045-8.025a2.34 2.34 0 0 0-.042-.43.668.668 0 0 1 .187-.602c.148-.146.286-.302.412-.467a7.924 7.924 0 0 1-.459.153zM197.487 25.818v-1.454c0-2.41 1.929-4.364 4.308-4.364h2.153c.397 0 .718.326.718.727v2.91a.723.723 0 0 1-.718.727h-2.153v1.454h2.153c.467 0 .81.445.697.904l-.718 2.909a.72.72 0 0 1-.697.55h-1.435v5.092a.723.723 0 0 1-.718.727h-2.872a.723.723 0 0 1-.718-.727v-5.091h-1.436a.723.723 0 0 1-.718-.727v-2.91c0-.401.322-.727.718-.727h1.436zm5.743-4.363h-1.435c-1.586 0-2.872 1.302-2.872 2.909v2.181a.723.723 0 0 1-.718.728h-1.436v1.454h1.436c.397 0 .718.326.718.728v5.09h1.436v-5.09c0-.402.321-.728.718-.728h1.593l.359-1.454h-1.952a.723.723 0 0 1-.718-.728v-2.181c0-.804.643-1.455 1.436-1.455h1.435v-1.454z"/>
            </g>
        </g>
        <g fill="#000" fill-opacity=".6" font-family="Roboto-Regular, Roboto" font-size="14">
            <text transform="translate(16 688)">
                <tspan x="5.859" y="13">® Todos os direitos reservados 2018. Todas </tspan> <tspan x="23.411" y="29">as marcas SKY e qualquer propriedade </tspan> <tspan x="5.2" y="45">intelectual inserida nelas são de propriedade </tspan> <tspan x="9.274" y="61">da SKY Internacional AG e usadas pela SKY </tspan> <tspan x="15.536" y="77">Serviços de Banda Larga LTDA. mediante </tspan> <tspan x="120.054" y="93">licença.</tspan>
            </text>
        </g>
        <g>
            <path fill="#FFF" fill-rule="nonzero" d="M0 528h320v144H0z"/>
            <text fill="#000" fill-opacity=".6" font-family="Roboto-Medium, Roboto" font-size="14" font-weight="400" transform="translate(0 528)">
                <tspan x="16" y="29">Início | Política de Privacidade </tspan> <tspan x="16" y="59">| Contratos gerais | Contratos Pré-pago | </tspan> <tspan x="16" y="89">Cancelamento | Ouvidoria I </tspan> <tspan x="16" y="119">Consumidor.gov</tspan>
            </text>
        </g>
    </g>
</svg>
