<svg xmlns="http://www.w3.org/2000/svg" xmlns:xlink="http://www.w3.org/1999/xlink" width="1024" height="568" viewBox="0 0 1024 568">
    <defs>
        <path id="a" d="M129.609-1.054c7.544 0 14.556 3.361 19.372 9.092 3.93 4.676 6.127 10.62 6.127 16.908 0 14.366-11.422 26-25.5 26-5.914 0-11.522-2.06-16.026-5.776a1.126 1.126 0 0 1-.173-1.534 1.015 1.015 0 0 1 1.468-.181c4.137 3.413 9.29 5.306 14.732 5.306 12.934 0 23.41-10.669 23.41-23.815 0-5.75-2.01-11.183-5.608-15.466-4.421-5.261-10.863-8.35-17.802-8.35-5.568 0-10.832 1.983-15.012 5.542-.448.38-1.106.31-1.47-.158a1.127 1.127 0 0 1 .15-1.537c4.551-3.873 10.28-6.031 16.332-6.031zM30.723 28.053c1.302 0 2.314.462 3.037 1.387.722.924 1.084 2.198 1.084 3.823v.14c0 1.562-.37 2.813-1.109 3.753s-1.736 1.41-2.993 1.41c-1.068 0-1.93-.356-2.588-1.068v4.778h-2.822V28.24h2.617l.098.994c.683-.788 1.575-1.181 2.676-1.181zm-11.26 0c1.302 0 2.314.462 3.037 1.387.723.924 1.084 2.198 1.084 3.823v.14c0 1.562-.37 2.813-1.108 3.753-.74.94-1.737 1.41-2.994 1.41-1.067 0-1.93-.356-2.587-1.068v4.778h-2.823V28.24h2.617l.098.994c.684-.788 1.576-1.181 2.676-1.181zm26.982 0c1.446 0 2.583.437 3.413 1.312.83.874 1.246 2.114 1.246 3.72v1.105h-6.729c.091.662.366 1.193.825 1.593.46.4 1.04.6 1.743.6 1.088 0 1.937-.378 2.55-1.134l1.386 1.49c-.423.574-.996 1.023-1.719 1.344-.723.322-1.523.483-2.402.483-1.55 0-2.811-.456-3.784-1.368-.974-.912-1.46-2.127-1.46-3.645v-.262c0-1.019.205-1.929.615-2.732a4.401 4.401 0 0 1 1.743-1.855c.752-.434 1.61-.651 2.573-.651zm52.97 0c1.444 0 2.582.437 3.412 1.312.83.874 1.245 2.114 1.245 3.72v1.105h-6.728c.09.662.366 1.193.825 1.593.459.4 1.04.6 1.743.6 1.087 0 1.937-.378 2.549-1.134l1.387 1.49c-.424.574-.996 1.023-1.72 1.344-.722.322-1.523.483-2.401.483-1.55 0-2.811-.456-3.785-1.368-.973-.912-1.46-2.127-1.46-3.645v-.262c0-1.019.205-1.929.616-2.732a4.401 4.401 0 0 1 1.743-1.855c.752-.434 1.61-.651 2.573-.651zm-18.419 0c1.426 0 2.59.418 3.491 1.255.902.838 1.405 1.974 1.51 3.411l.019.693c0 1.556-.453 2.804-1.358 3.744-.905.94-2.119 1.41-3.642 1.41-1.524 0-2.74-.469-3.648-1.406-.908-.937-1.362-2.21-1.362-3.823v-.121c0-1.006.202-1.902.605-2.69a4.324 4.324 0 0 1 1.743-1.827c.759-.43 1.64-.646 2.642-.646zM62.96 24.549c1.016 0 1.92.176 2.715.53.794.352 1.411.85 1.85 1.494.44.643.66 1.374.66 2.192h-2.93c0-.625-.205-1.11-.615-1.457-.41-.347-.987-.52-1.729-.52-.716 0-1.273.145-1.67.436-.397.29-.595.673-.595 1.148 0 .443.232.815.698 1.115.465.3 1.15.58 2.055.843 1.667.48 2.881 1.077 3.643 1.79.762.712 1.143 1.598 1.143 2.66 0 1.181-.466 2.107-1.397 2.779-.93.671-2.184 1.007-3.76 1.007-1.093 0-2.09-.192-2.988-.576-.898-.385-1.584-.91-2.056-1.58-.472-.668-.708-1.442-.708-2.323h2.94c0 1.505.937 2.258 2.812 2.258.697 0 1.24-.136 1.631-.407.39-.272.586-.652.586-1.139 0-.53-.195-.938-.586-1.223-.39-.284-1.094-.584-2.11-.9-1.015-.315-1.819-.625-2.411-.931-1.615-.837-2.422-1.965-2.422-3.383 0-.737.216-1.394.65-1.972.432-.578 1.054-1.03 1.864-1.354.811-.325 1.72-.487 2.73-.487zm10.4 1.199v2.492h1.807v1.987h-1.807v5.06c0 .374.075.643.225.805.15.163.436.244.86.244.312 0 .589-.022.83-.066v2.052a6.037 6.037 0 0 1-1.71.244c-1.979 0-2.988-.96-3.027-2.877v-5.462h-1.543V28.24h1.543v-2.492h2.822zM39.57 23.986v14.392h-2.832V23.986h2.832zm53.282 4.067c.312 0 .605.04.878.122l-.039 2.605a7.985 7.985 0 0 0-1.015-.075c-1.068 0-1.768.346-2.1 1.04v6.633h-2.822V28.24h2.666l.078 1.209c.566-.93 1.351-1.396 2.354-1.396zM8.076 24.736l5.322 13.642h-3.115l-.986-2.81H4.16l-.976 2.81H.068l5.293-13.642h2.715zm72.92 5.51c-.69 0-1.224.257-1.601.772-.378.516-.567 1.314-.567 2.394 0 .962.189 1.698.567 2.207.377.51.917.764 1.62.764.684 0 1.218-.252 1.602-.755.384-.502.576-1.307.576-2.412 0-.944-.192-1.674-.576-2.193-.384-.518-.924-.778-1.62-.778zm-51.016.009c-.885 0-1.494.325-1.826.974v4.151c.345.668.96 1.003 1.846 1.003 1.348 0 2.021-1.06 2.021-3.177 0-.943-.174-1.67-.522-2.183-.348-.512-.854-.768-1.519-.768zm-11.26 0c-.885 0-1.493.325-1.825.974v4.151c.345.668.96 1.003 1.845 1.003 1.348 0 2.022-1.06 2.022-3.177 0-.943-.174-1.67-.523-2.183-.348-.512-.854-.768-1.518-.768zm116.401-12.968c.758.032 2.895.283 4.269 2.132-.114.066-2.55 1.37-2.524 4.09.03 3.25 3.098 4.333 3.134 4.346-.029.073-.492 1.542-1.618 3.054l-.266.356c-.892 1.181-1.86 2.263-3.306 2.286-1.56.029-2.062-.852-3.848-.852s-2.344.827-3.822.88c-1.537.056-2.702-1.415-3.684-2.719-2.006-2.668-3.535-7.54-1.482-10.826 1.024-1.633 2.847-2.665 4.829-2.693 1.51-.023 2.93.933 3.852.933.922 0 2.648-1.157 4.466-.987zM6.72 28.184L4.95 33.291h3.555l-1.787-5.107zm92.685 2.061c-.56 0-1.014.182-1.362.544-.348.362-.571.88-.669 1.555h3.926v-.215c-.013-.6-.182-1.064-.508-1.392-.326-.328-.788-.492-1.387-.492zm-52.968 0c-.56 0-1.014.182-1.363.544-.348.362-.571.88-.669 1.555h3.926v-.215c-.013-.6-.182-1.064-.508-1.392-.325-.328-.787-.492-1.386-.492zM24.117 10.042c.889 0 1.592.322 2.11.965.516.642.775 1.537.775 2.682v.112c0 1.08-.258 1.95-.773 2.61-.514.66-1.212.99-2.091.99-.898 0-1.604-.273-2.12-.82V20h-1.264v-9.825h1.155l.062.787c.515-.612 1.23-.919 2.146-.919zm-7.902 0c.838 0 1.519.208 2.04.624.522.415.783.946.783 1.593h-1.271c0-.332-.147-.618-.441-.859-.294-.24-.665-.36-1.111-.36-.46 0-.82.096-1.08.288a.896.896 0 0 0-.39.754c0 .293.12.514.362.663.242.148.678.29 1.31.426.63.136 1.142.297 1.534.485.392.188.683.415.872.68.189.264.283.586.283.967 0 .634-.264 1.142-.793 1.525-.528.382-1.214.573-2.057.573-.593 0-1.117-.1-1.572-.301a2.537 2.537 0 0 1-1.07-.843 1.975 1.975 0 0 1-.386-1.17h1.264c.023.406.193.728.51.967.316.238.734.357 1.254.357.478 0 .862-.093 1.152-.279.29-.186.434-.434.434-.744a.881.881 0 0 0-.386-.764c-.258-.182-.707-.338-1.347-.47-.64-.13-1.149-.288-1.525-.471-.376-.184-.653-.403-.834-.656a1.523 1.523 0 0 1-.27-.905c0-.582.257-1.074.77-1.476.512-.402 1.167-.604 1.965-.604zm15.415 0c1.007 0 1.822.335 2.444 1.004.622.669.933 1.559.933 2.67v.085c0 .69-.138 1.31-.414 1.86-.275.548-.67.975-1.182 1.281-.513.306-1.102.46-1.767.46-1.003 0-1.815-.335-2.437-1.004-.623-.67-.934-1.554-.934-2.656v-.086c0-.695.143-1.32.428-1.875a3.104 3.104 0 0 1 1.19-1.286c.507-.302 1.087-.453 1.739-.453zm25.84 0c.961 0 1.709.304 2.242.912.533.608.8 1.478.8 2.61v.506H55.5c.018.7.231 1.264.64 1.695.407.43.925.646 1.554.646.447 0 .825-.087 1.135-.262.31-.175.581-.407.814-.696l.772.578c-.62.914-1.55 1.37-2.789 1.37-1.003 0-1.818-.315-2.447-.947-.63-.632-.944-1.477-.944-2.535v-.223c0-.704.14-1.333.42-1.886a3.19 3.19 0 0 1 1.177-1.299 3.047 3.047 0 0 1 1.637-.469zm21.97 0c.853 0 1.52.205 2.003.614.483.409.734.972.752 1.689v3.266c0 .651.087 1.17.26 1.554v.105H81.13c-.073-.14-.132-.389-.178-.747-.588.585-1.29.878-2.105.878-.73 0-1.328-.197-1.795-.593a1.887 1.887 0 0 1-.7-1.505c0-.74.292-1.313.878-1.722.586-.409 1.41-.613 2.471-.613h1.23v-.558c0-.424-.131-.762-.396-1.013-.264-.252-.654-.377-1.169-.377-.45 0-.83.109-1.135.328-.305.218-.458.483-.458.793h-1.271c0-.354.131-.696.393-1.026.262-.33.618-.592 1.066-.784a3.718 3.718 0 0 1 1.48-.289zm55.534 3.39c.158.976-.421 1.953-1.285 2.657-.86.702-2.275 1.247-3.659 1.175-.185-.954.513-1.948 1.31-2.572.886-.7 2.394-1.227 3.634-1.26zM3.964 7.721c.867 0 1.632.183 2.298.55.665.368 1.179.89 1.541 1.568.363.678.546 1.456.55 2.335v.61c0 .9-.18 1.69-.543 2.368a3.739 3.739 0 0 1-1.552 1.56c-.672.364-1.455.55-2.348.558H1.155V7.72h2.81zm68.326 2.321c1.563 0 2.352.847 2.365 2.539v4.69h-1.264v-4.697c-.005-.511-.127-.89-.366-1.135-.24-.244-.612-.367-1.118-.367-.41 0-.77.105-1.08.315-.31.21-.551.485-.724.826v5.057h-1.265v-7.096h1.196l.041.892c.565-.682 1.304-1.024 2.215-1.024zm-8.941-2.846V17.27h-1.265V7.196h1.265zm-15.012 2.978l1.88 5.45 1.832-5.45h1.292l-2.653 7.096h-.963l-2.68-7.096h1.292zm-2.646 0v7.096H44.42v-7.096h1.271zm-34.18 0v7.096h-1.264v-7.096h1.265zm28.534-.132c1.563 0 2.351.847 2.365 2.539v4.69h-1.264v-4.697c-.005-.511-.127-.89-.366-1.135-.24-.244-.612-.367-1.118-.367-.41 0-.77.105-1.08.315-.31.21-.551.485-.725.826v5.057h-1.264v-7.096h1.196l.041.892c.565-.682 1.303-1.024 2.215-1.024zm-8.415.997c-.624 0-1.128.239-1.51.715-.384.477-.575 1.159-.575 2.047 0 .787.19 1.419.57 1.895.381.477.89.715 1.529.715.642 0 1.153-.242 1.53-.725.38-.483.568-1.16.568-2.03 0-.778-.192-1.409-.577-1.892-.386-.483-.897-.725-1.535-.725zm-7.889.033c-.765 0-1.34.326-1.722.977v3.391c.378.648.957.971 1.736.971.606 0 1.088-.23 1.446-.692.357-.461.536-1.147.536-2.056 0-.8-.177-1.432-.533-1.896-.355-.463-.843-.695-1.463-.695zm57.19 2.755h-.992c-1.549 0-2.324.435-2.324 1.305 0 .38.132.678.397.892.264.214.604.321 1.018.321.397 0 .773-.098 1.128-.295.356-.196.613-.452.773-.767v-1.456zM3.999 8.757H2.468v7.484h1.38c1.012 0 1.8-.302 2.362-.906.563-.603.845-1.462.845-2.577V12.2c0-1.084-.266-1.927-.797-2.528-.53-.601-1.284-.906-2.259-.915zm53.47 2.282c-.51 0-.938.179-1.284.535-.347.356-.561.856-.643 1.499h3.705v-.092c-.036-.617-.21-1.094-.52-1.433-.31-.34-.729-.509-1.257-.509zM47.237 7.203L45.404 9.13h-1.018l1.32-1.928h1.53zm-36.346.386c.246 0 .433.068.56.204a.7.7 0 0 1 .192.498c0 .197-.064.361-.192.492-.127.131-.314.197-.56.197-.246 0-.432-.066-.557-.197a.684.684 0 0 1-.188-.492c0-.196.062-.363.188-.498.125-.136.31-.204.557-.204z"/>
        <path id="c" d="M130.318-.928c7.47 0 14.414 3.319 19.182 8.976 3.891 4.616 6.068 10.484 6.068 16.691 0 14.182-11.31 25.667-25.25 25.667-5.856 0-11.409-2.034-15.87-5.702a1.11 1.11 0 0 1-.17-1.515 1.007 1.007 0 0 1 1.453-.178 22.875 22.875 0 0 0 14.587 5.238c12.808 0 23.18-10.532 23.18-23.51 0-5.677-1.989-11.04-5.552-15.268-4.378-5.193-10.757-8.242-17.628-8.242-5.512 0-10.725 1.957-14.864 5.47a1.006 1.006 0 0 1-1.456-.155 1.11 1.11 0 0 1 .149-1.518c4.507-3.824 10.18-5.954 16.171-5.954zm-83.25 28.741c1.3 0 2.341.624 2.991 1.249v-.874h2.34v9.492c0 3.872-2.34 5.496-5.2 5.496-2.73 0-4.291-1.749-4.941-3.123l2.08-.874c.26.874 1.3 1.873 2.73 1.873 1.82 0 2.991-1.124 2.991-3.122v-.75h-.13c-.52.625-1.56 1.25-2.86 1.25-2.861 0-5.331-2.249-5.331-5.246 0-2.998 2.6-5.371 5.33-5.371zm54.61.375l2.861 6.744h.13l2.73-6.744H110l-6.631 14.738h-2.47l2.47-5.246-4.291-9.492h2.6zm-38.747-.25c2.861 0 4.161 2.123 4.681 3.372l.26.625-7.411 2.997c.65 1.124 1.43 1.624 2.73 1.624s2.08-.625 2.731-1.499l1.82 1.25c-.52.873-2.08 2.372-4.55 2.372-3.121 0-5.462-2.373-5.462-5.37 0-3.248 2.34-5.371 5.201-5.371zm-39.917 0c3.12 0 5.591 2.123 5.591 5.37 0 3.123-2.47 5.371-5.59 5.371-3.121 0-5.592-2.373-5.592-5.37 0-3.123 2.47-5.371 5.591-5.371zm12.092 0c3.121 0 5.591 2.123 5.591 5.37 0 3.123-2.47 5.371-5.59 5.371-3.121 0-5.592-2.373-5.592-5.37 0-3.123 2.47-5.371 5.591-5.371zm-26.394-5.87c2.6 0 4.42.999 5.85 2.248l-1.69 1.623c-1.04-.874-2.47-1.623-4.29-1.623-3.381 0-6.112 2.623-6.112 5.995s2.6 5.995 6.112 5.995c2.21 0 3.51-.874 4.29-1.624.65-.624 1.17-1.623 1.3-2.872h-5.59v-2.248h8.061c.13.374.13.874.13 1.373 0 1.624-.52 3.747-2.08 5.246-1.56 1.624-3.38 2.373-5.981 2.373C4.03 38.554 0 34.807 0 30.311s4.03-8.243 8.712-8.243zm85.295 5.745c2.73 0 4.941 1.624 5.201 4.371v5.996h-2.34v-1.25h-.13c-.65.75-1.43 1.5-3.121 1.5-2.08 0-4.03-1.374-4.03-3.498 0-2.248 2.34-3.497 4.68-3.497 1.04 0 2.08.375 2.47.625v-.125c-.13-1.25-1.3-1.999-2.6-1.999-.91 0-1.69.25-2.21 1.124l-2.21-.874c.65-1.624 2.47-2.373 4.29-2.373zm-5.981-5.246V38.18h-2.47V22.567h2.47zm-9.102 0c2.73 0 5.331 1.874 5.331 4.871 0 2.998-2.6 4.871-5.33 4.871h-3.381v5.87h-2.47V22.568zm-22.494 0V38.18h-2.47V22.567h2.47zm37.967 10.866c-1.17 0-2.6.375-2.6 1.624 0 1 1.17 1.374 1.95 1.374 1.3 0 2.6-1 2.86-2.498-.65-.25-1.17-.5-2.21-.5zM47.2 29.936c-1.69 0-3.121 1.374-3.121 3.248 0 1.873 1.43 3.247 3.12 3.247 1.69 0 2.991-1.374 2.991-3.247 0-1.874-1.3-3.248-2.99-3.248zm-24.185 0c-1.69 0-3.12 1.374-3.12 3.248 0 1.873 1.43 3.247 3.12 3.247 1.69 0 3.12-1.374 3.12-3.247 0-1.999-1.43-3.248-3.12-3.248zm12.092 0c-1.69 0-3.12 1.374-3.12 3.248 0 1.873 1.43 3.247 3.12 3.247 1.69 0 3.121-1.374 3.121-3.247 0-1.999-1.43-3.248-3.12-3.248zm89.586-15.527l9.06 10.063-8.977 9.964c-.364-.096-.6-.45-.6-.997V15.382c0-.456.162-.779.426-.929l.091-.044zm9.578 10.64l2.655 2.95-10.903 6.054 8.248-9.004zM62.93 29.936c-1.17 0-2.86 1.124-2.86 3.123l4.94-1.999c-.26-.624-1.17-1.124-2.08-1.124zm16.123-5.246h-3.51v5.371h3.51c1.69 0 2.73-1.374 2.86-2.748 0-1.124-1.04-2.623-2.86-2.623zm58.676-3.42l4.212 2.34c.797.443.805 1.157 0 1.604l-4.319 2.397-2.816-3.149 2.923-3.191zm-11.481-6.375L137 20.865l-2.715 3.014-8.036-8.984zM24.117 10.042c.889 0 1.592.322 2.11.965.516.642.775 1.537.775 2.682v.112c0 1.08-.258 1.95-.773 2.61-.514.66-1.212.99-2.091.99-.898 0-1.604-.273-2.12-.82V20h-1.264v-9.825h1.155l.062.787c.515-.612 1.23-.919 2.146-.919zm55.323 0c.853 0 1.52.205 2.003.614.483.409.734.972.752 1.689v3.266c0 .651.087 1.17.26 1.554v.105H81.13c-.073-.14-.132-.389-.178-.747-.588.585-1.29.878-2.105.878-.73 0-1.328-.197-1.795-.593a1.887 1.887 0 0 1-.7-1.505c0-.74.292-1.313.878-1.722.586-.409 1.41-.613 2.471-.613h1.23v-.558c0-.424-.131-.762-.396-1.013-.264-.252-.654-.377-1.169-.377-.45 0-.83.109-1.135.328-.305.218-.458.483-.458.793h-1.271c0-.354.131-.696.393-1.026.262-.33.618-.592 1.066-.784a3.718 3.718 0 0 1 1.48-.289zm-63.225 0c.838 0 1.519.208 2.04.624.522.415.783.946.783 1.593h-1.271c0-.332-.147-.618-.441-.859-.294-.24-.665-.36-1.111-.36-.46 0-.82.096-1.08.288a.896.896 0 0 0-.39.754c0 .293.12.514.362.663.242.148.678.29 1.31.426.63.136 1.142.297 1.534.485.392.188.683.415.872.68.189.264.283.586.283.967 0 .634-.264 1.142-.793 1.525-.528.382-1.214.573-2.057.573-.593 0-1.117-.1-1.572-.301a2.537 2.537 0 0 1-1.07-.843 1.975 1.975 0 0 1-.386-1.17h1.264c.023.406.193.728.51.967.316.238.734.357 1.254.357.478 0 .862-.093 1.152-.279.29-.186.434-.434.434-.744a.881.881 0 0 0-.386-.764c-.258-.182-.707-.338-1.347-.47-.64-.13-1.149-.288-1.525-.471-.376-.184-.653-.403-.834-.656a1.523 1.523 0 0 1-.27-.905c0-.582.257-1.074.77-1.476.512-.402 1.167-.604 1.965-.604zm41.255 0c.961 0 1.709.304 2.242.912.533.608.8 1.478.8 2.61v.506H55.5c.018.7.231 1.264.64 1.695.407.43.925.646 1.554.646.447 0 .825-.087 1.135-.262.31-.175.581-.407.814-.696l.772.578c-.62.914-1.55 1.37-2.789 1.37-1.003 0-1.818-.315-2.447-.947-.63-.632-.944-1.477-.944-2.535v-.223c0-.704.14-1.333.42-1.886a3.19 3.19 0 0 1 1.177-1.299 3.047 3.047 0 0 1 1.637-.469zm-25.84 0c1.007 0 1.822.335 2.444 1.004.622.669.933 1.559.933 2.67v.085c0 .69-.138 1.31-.414 1.86-.275.548-.67.975-1.182 1.281-.513.306-1.102.46-1.767.46-1.003 0-1.815-.335-2.437-1.004-.623-.67-.934-1.554-.934-2.656v-.086c0-.695.143-1.32.428-1.875a3.104 3.104 0 0 1 1.19-1.286c.507-.302 1.087-.453 1.739-.453zm31.719-2.846V17.27h-1.265V7.196h1.265zM3.965 7.72c.866 0 1.631.183 2.297.55.665.368 1.179.89 1.541 1.568.363.678.546 1.456.55 2.335v.61c0 .9-.18 1.69-.543 2.368a3.739 3.739 0 0 1-1.552 1.56c-.672.364-1.455.55-2.348.558H1.155V7.72h2.81zm41.726 2.453v7.096H44.42v-7.096h1.271zm26.599-.132c1.563 0 2.352.847 2.365 2.539v4.69h-1.264v-4.697c-.005-.511-.127-.89-.366-1.135-.24-.244-.612-.367-1.118-.367-.41 0-.77.105-1.08.315-.31.21-.551.485-.724.826v5.057h-1.265v-7.096h1.196l.041.892c.565-.682 1.304-1.024 2.215-1.024zm-23.953.132l1.88 5.45 1.832-5.45h1.292l-2.653 7.096h-.963l-2.68-7.096h1.292zm-36.825 0v7.096h-1.265v-7.096h1.265zm28.533-.132c1.563 0 2.351.847 2.365 2.539v4.69h-1.264v-4.697c-.005-.511-.127-.89-.366-1.135-.24-.244-.612-.367-1.118-.367-.41 0-.77.105-1.08.315-.31.21-.551.485-.725.826v5.057h-1.264v-7.096h1.196l.041.892c.565-.682 1.303-1.024 2.215-1.024zm-16.304 1.03c-.765 0-1.34.326-1.722.977v3.391c.378.648.957.971 1.736.971.606 0 1.088-.23 1.446-.692.357-.461.536-1.147.536-2.056 0-.8-.177-1.432-.533-1.896-.355-.463-.843-.695-1.463-.695zm7.889-.033c-.624 0-1.128.239-1.51.715-.384.477-.575 1.159-.575 2.047 0 .787.19 1.419.57 1.895.381.477.89.715 1.529.715.642 0 1.153-.242 1.53-.725.38-.483.568-1.16.568-2.03 0-.778-.192-1.409-.577-1.892-.386-.483-.897-.725-1.535-.725zm49.3 2.788h-.99c-1.55 0-2.325.435-2.325 1.305 0 .38.132.678.397.892.264.214.604.321 1.018.321.397 0 .773-.098 1.128-.295.356-.196.613-.452.773-.767v-1.456zM4 8.757H2.468v7.484h1.38c1.012 0 1.8-.302 2.362-.906.563-.603.845-1.462.845-2.577V12.2c0-1.084-.266-1.927-.797-2.528-.53-.601-1.284-.906-2.259-.915zm53.47 2.282c-.51 0-.938.179-1.284.535-.347.356-.561.856-.643 1.499h3.705v-.092c-.036-.617-.21-1.094-.52-1.433-.31-.34-.729-.509-1.257-.509zM47.237 7.203L45.404 9.13h-1.018l1.32-1.928h1.53zm-36.346.386c.246 0 .433.068.56.204a.7.7 0 0 1 .192.498c0 .197-.064.361-.192.492-.127.131-.314.197-.56.197-.246 0-.432-.066-.557-.197a.684.684 0 0 1-.188-.492c0-.196.062-.363.188-.498.125-.136.31-.204.557-.204z"/>
        <path id="e" d="M0 .09h47.905v45.786H0z"/>
        <path id="g" d="M18.229.003c4.858.07 8.481 1.223 11.478 3.352l.484-2.501h8.976l-2.61 12.263L47.11.854h8.913l4.85 9.03 6.971-9.03h10.368L63.541 18.24l-2.183 10.86h-8.852l2.485-12.14-4.546-7.871-5.942 6.528L52.506 29.1h-10.67l-6.247-11.225L33.466 29.1h-8.972l1.272-6.466c-2.425 5.551-6.971 7.382-13.155 7.382-5.21 0-9.998-1.584-12.606-4.448v-.012l4.906-5.79c2.121 2.075 5.396 3.173 8.851 3.173 2.425 0 3.88-.915 3.94-2.136.062-2.074-3.515-2.379-6.79-3.293-3.698-1.038-7.638-3.539-6.608-8.786C5.08 4.76 8.56.144 17.35.004h.879zm11.055 5.305l-3.578 4.209c-3.82-2.135-6.365-2.622-9.094-2.622-1.515 0-3.213.365-3.456 1.83-.182 1.28 1.03 1.585 3.578 2.135l.538.114c4.487.965 8.882 2.328 9.464 6.962l2.548-12.628zM81.82.972c.738 0 1.299.273 1.685.818.386.546.481 1.205.285 1.975-.196.771-.626 1.43-1.29 1.977-.663.547-1.364.821-2.1.821-.746 0-1.312-.273-1.7-.819-.386-.546-.482-1.206-.285-1.979.196-.77.626-1.429 1.29-1.975.665-.545 1.37-.818 2.115-.818zm-.102.385c-.629 0-1.226.235-1.791.704-.565.47-.933 1.038-1.103 1.704-.169.666-.09 1.235.236 1.706.326.471.804.707 1.433.707s1.225-.236 1.788-.707c.563-.47.93-1.04 1.1-1.706.168-.663.09-1.23-.233-1.702-.324-.47-.8-.706-1.43-.706zm.048.819c.677 0 .934.324.77.971-.12.471-.347.753-.68.847.268.072.359.277.274.614l-.177.695h-.634l.147-.578c.074-.295-.035-.442-.329-.442h-.808l-.26 1.02h-.633l.794-3.127h1.536zm-.198.562h-.846l-.25.983h.808c.335 0 .545-.166.629-.498.082-.323-.031-.485-.34-.485z"/>
    </defs>
    <g fill="none" fill-rule="evenodd">
        <path fill="#F1F2FA" fill-rule="nonzero" d="M0 0h1024v568H0z"/>
        <path fill="#FFF" fill-rule="nonzero" d="M0 445.19h1024v53.73H0z"/>
        <text fill="#000" fill-opacity=".6" font-family="Roboto-Regular, Roboto" font-size="14" transform="translate(0 445.19)">
            <tspan x="48" y="82.081">® Todos os direitos reservados 2018. Todas as marcas SKY e qualquer propriedade intelectual inserida nelas são de propriedade da SKY </tspan> <tspan x="48" y="102.081">Internacional AG e usadas pela SKY Serviços de Banda Larga LTDA. mediante licença.</tspan>
        </text>
        <text fill="#000" fill-opacity=".6" font-family="Roboto-Medium, Roboto" font-size="14" font-weight="400" transform="translate(0 445.19)">
            <tspan x="48" y="13">Início | Política de Privacidade | Contratos gerais | Contratos Pré-pago | Cancelamento | Ouvidoria I Consumidor.gov</tspan>
        </text>
        <text fill="#000" fill-opacity=".6" font-family="Roboto-Bold, Roboto" font-size="16" font-weight="bold" transform="translate(48 92.108)">
            <tspan x="64" y="15">Baixe no seu celular o app </tspan> <tspan x="64" y="34">Minha SKY e divirta-se. </tspan>
        </text>
        <g transform="translate(112 154.473)">
            <mask id="b" fill="#fff">
                <use xlink:href="#a"/>
            </mask>
            <g fill="#000" fill-opacity=".6" mask="url(#b)">
                <path d="M0-.96h160v51.812H0z"/>
            </g>
        </g>
        <g transform="translate(112 223.554)">
            <mask id="d" fill="#fff">
                <use xlink:href="#c"/>
            </mask>
            <use fill="#FFF" fill-rule="nonzero" xlink:href="#c"/>
            <g fill="#000" fill-opacity=".6" mask="url(#d)">
                <path d="M0-.96h160v51.812H0z"/>
            </g>
        </g>
        <g transform="translate(48 92.196)">
            <mask id="f" fill="#fff">
                <use xlink:href="#e"/>
            </mask>
            <path fill="#E1413E" d="M47.905 34.293c0 6.37-5.454 11.583-12.12 11.583H12.12C5.454 45.876 0 40.663 0 34.293v-22.62C0 5.304 5.454.092 12.12.092h23.666c6.665 0 12.119 5.212 12.119 11.583v22.619z" mask="url(#f)"/>
        </g>
        <path fill="#FFF" d="M65.894 118.159c-1.727-.965-2.878-1.186-4.112-1.186-.686 0-1.453.165-1.563.827-.082.579.466.717 1.618.966 2.11.44 4.248 1.02 4.522 3.198l1.152-5.708-1.617 1.903zm15.9.165l3.152-4.081h4.688L83 122.103l-.987 4.908h-4.002l1.124-5.488-2.056-3.557-2.686 2.95 3.618 6.095h-4.824l-2.825-5.074-.96 5.074h-4.057l.576-2.923c-1.097 2.51-3.152 3.337-5.948 3.337-2.358 0-4.524-.717-5.702-2.014l2.22-2.62c.96.938 2.44 1.435 4.002 1.435 1.097 0 1.755-.414 1.782-.966.027-.937-1.59-1.075-3.07-1.488-1.672-.47-3.454-1.6-2.988-3.972.356-1.82 1.974-3.943 6.085-3.943 2.303 0 4.003.523 5.4 1.516l.22-1.13h4.058l-1.18 5.543 4.771-5.543h4.03l2.193 4.081zM63.732 110.438l.765-3.781-.036-.012-1.064 1.611-.777 1.12h-1.386l-.335-1.177-.394-1.554-.048.034-.765 3.759h-1.793l1.614-7.951h1.625l.634 2.307.562 2.388h.048l1.506-2.388 1.553-2.307h1.698l-1.614 7.951zM67.952 103.915l.286-1.428h1.674l-.287 1.428h-1.673zm-1.327 6.523l1.147-5.655h1.674l-1.148 5.655h-1.673zM72.733 110.438l.681-3.347c.064-.29.028-.507-.107-.651-.136-.145-.32-.218-.55-.218-.247 0-.466.073-.658.218-.19.144-.319.361-.382.65l-.682 3.348h-1.673l1.16-5.666h1.673l-.084.422h.024c.183-.13.399-.241.646-.337.247-.095.482-.143.705-.143.294 0 .562.044.8.132.24.087.435.217.587.388.15.172.254.385.31.64.056.255.048.547-.024.874l-.753 3.69h-1.673zM78.829 110.45l.681-3.348c.12-.579-.1-.868-.657-.868-.247 0-.466.072-.658.217-.19.145-.319.362-.382.651l-.681 3.347h-1.674l1.721-8.316h1.674l-.646 3.05.048.011c.183-.13.395-.24.634-.331.239-.091.47-.137.693-.137.295 0 .562.044.8.131.24.088.435.217.587.389.15.171.255.384.31.64.056.255.048.546-.023.873l-.73 3.69H78.83zM83.539 108.347c0 .176.047.33.143.463.095.133.27.2.526.2a.792.792 0 0 0 .568-.223c.155-.148.28-.327.376-.537.096-.21.163-.426.203-.65.04-.225.06-.414.06-.566 0-.107-.008-.21-.024-.309a.712.712 0 0 0-.09-.257.456.456 0 0 0-.19-.171.739.739 0 0 0-.33-.063.83.83 0 0 0-.597.228c-.16.153-.287.34-.383.56a2.956 2.956 0 0 0-.203.691c-.04.24-.06.452-.06.634m1.076-3.621c.183 0 .387.034.61.103.223.068.414.19.574.365l.024-.011.083-.4h1.674l-1.148 5.655h-1.673l.095-.446-.035-.011a1.915 1.915 0 0 1-.598.366c-.12.045-.24.084-.359.114-.12.03-.227.046-.322.046-.36 0-.652-.052-.879-.155a1.282 1.282 0 0 1-.526-.41 1.483 1.483 0 0 1-.251-.584 3.35 3.35 0 0 1-.066-.668c0-.434.046-.883.138-1.348.091-.464.247-.891.466-1.28.219-.388.508-.708.866-.96.359-.25.801-.376 1.327-.376"/>
        <g fill="#000" fill-opacity=".6">
            <path d="M969.51 26.385c-.552 0-1.005-.43-1.005-.96 0-.529.443-.959.995-.959h.01c.553 0 1 .43 1 .96s-.447.96-1 .96zm-5.47 1.398c-1.121 0-2.161.6-2.676 1.584-.583 1.111-.36 2.45.558 3.33a3.086 3.086 0 0 0 3.47.535c1.159-.56 1.809-1.762 1.619-2.993-.195-1.263-1.211-2.238-2.527-2.425a3.16 3.16 0 0 0-.444-.03zm.002 7.678a5.102 5.102 0 0 1-3.534-1.408c-1.53-1.466-1.903-3.696-.931-5.55.972-1.851 3.056-2.891 5.2-2.587 2.194.312 3.887 1.936 4.212 4.042.317 2.051-.767 4.056-2.697 4.988a5.179 5.179 0 0 1-2.25.515zM959 22.068c-2.205 0-4 1.72-4 3.837V35.5c0 2.117 1.795 3.838 4 3.838h10c2.206 0 4-1.721 4-3.838v-9.595c0-2.116-1.794-3.837-4-3.837h-10zm10 19.189h-10c-3.308 0-6-2.582-6-5.757v-9.595c0-3.174 2.692-5.756 6-5.756h10c3.309 0 6 2.582 6 5.756V35.5c0 3.175-2.691 5.757-6 5.757zM914.75 28.016v2.976l2.728-1.488-2.727-1.488zm-1 5.585c-.173 0-.347-.045-.502-.13a.952.952 0 0 1-.497-.83v-6.275a.95.95 0 0 1 .497-.829c.307-.171.687-.174.997-.005l5.75 3.138c.313.17.506.488.506.834a.953.953 0 0 1-.506.833l-5.75 3.138a1.034 1.034 0 0 1-.494.126zM916 23.027c-2.712 0-7.172.11-8.341.409a1.741 1.741 0 0 0-1.228 1.224A25.98 25.98 0 0 0 906 29.5c-.011 1.66.139 3.322.444 4.949.147.478.623.93 1.22 1.086 1.163.298 5.623.408 8.336.408s7.173-.11 8.342-.41a1.74 1.74 0 0 0 1.228-1.224c.287-1.537.436-3.174.43-4.801a25.87 25.87 0 0 0-.437-4.912 1.753 1.753 0 0 0-1.235-1.201c-1.28-.3-6.448-.367-8.328-.367zm0 14.834c-.717 0-7.062-.014-8.857-.474-1.273-.335-2.284-1.295-2.644-2.507a27.564 27.564 0 0 1-.498-5.383c-.01-1.742.15-3.51.476-5.24a3.73 3.73 0 0 1 2.652-2.672c1.809-.464 8.154-.477 8.872-.477.716 0 7.052.012 8.837.43 1.334.362 2.345 1.362 2.673 2.619a27.621 27.621 0 0 1 .49 5.353 27.686 27.686 0 0 1-.476 5.202 3.726 3.726 0 0 1-2.652 2.67c-1.81.465-8.154.479-8.872.479z"/>
            <path fill-rule="nonzero" d="M878.422 21.294c.755-.512 1.766.15 1.548 1.012a8.276 8.276 0 0 1-1.995 3.626c.015.156.023.313.023.47 0 11.394-11.444 17.248-21.482 11.889-.92-.491-.527-1.84.526-1.8a11.012 11.012 0 0 0 4.873-.93c-2.204-1.305-3.615-3.033-4.307-5.077-.715-2.11-.61-4.33-.014-6.436.18-.637.364-1.117.494-1.399.315-.682 1.285-.773 1.732-.162 1.671 2.287 4.314 3.715 7.18 3.922-.015-2.195 1.389-4.17 3.525-4.955 1.932-.708 4.094-.306 5.607.995a10.044 10.044 0 0 0 2.29-1.155zm-2.275 3.175a1.026 1.026 0 0 1-1.043-.29c-.958-1.058-2.502-1.43-3.866-.93-1.364.501-2.258 1.766-2.238 3.182v.96c0 .522-.432.948-.974.961-3.26.082-6.375-1.152-8.62-3.35-.395 1.639-.424 3.328.104 4.887.676 2 2.226 3.622 4.897 4.763a.944.944 0 0 1 .155 1.673 12.877 12.877 0 0 1-3.629 1.63c7.678 1.94 15.066-2.957 15.066-11.55 0-.208-.022-.415-.062-.62a.937.937 0 0 1 .28-.864c.222-.211.429-.436.617-.673-.226.08-.455.154-.687.22zM816.23 26.603V24.51c0-3.469 2.893-6.28 6.462-6.28h3.23c.595 0 1.077.468 1.077 1.046v4.187c0 .578-.482 1.047-1.076 1.047h-3.231v2.093h3.23c.701 0 1.215.64 1.045 1.3l-1.077 4.187c-.12.466-.55.793-1.044.793h-2.154v7.327c0 .578-.482 1.047-1.077 1.047h-4.307c-.595 0-1.077-.469-1.077-1.047v-7.327h-2.154c-.595 0-1.077-.468-1.077-1.046V27.65c0-.578.482-1.047 1.077-1.047h2.154zm8.616-6.28h-2.154c-2.379 0-4.308 1.875-4.308 4.187v3.14c0 .578-.482 1.047-1.076 1.047h-2.154v2.093h2.154c.594 0 1.076.469 1.076 1.047v7.326h2.154v-7.326c0-.578.482-1.047 1.077-1.047h2.39l.538-2.093h-2.928c-.595 0-1.077-.47-1.077-1.047v-3.14c0-1.156.964-2.094 2.154-2.094h2.154v-2.093z"/>
        </g>
        <g fill="#505050" fill-opacity=".15" fill-rule="nonzero">
            <path d="M0 61.385h1024v1H0z"/>
        </g>
        <g fill="#505050" fill-opacity=".15" fill-rule="nonzero">
            <path d="M0-.02h1024v1H0z"/>
        </g>
        <g>
            <g transform="translate(48 15.703)">
                <mask id="h" fill="#fff">
                    <use xlink:href="#g"/>
                </mask>
                <g fill="#000" fill-opacity=".6" mask="url(#h)">
                    <path d="M0-.845h83.988v32H0z"/>
                </g>
            </g>
        </g>
        <g fill="#000" fill-opacity=".6">
            <text font-family="Roboto-Bold, Roboto" font-size="16" font-weight="bold" transform="translate(528 92.108)">
                <tspan x="239" y="244.622">SKY Empresas</tspan>
            </text>
            <text font-family="Roboto-Medium, Roboto" font-size="14" font-weight="400" transform="translate(529 322.378)">
                <tspan x="0" y="43.703">Central de ajuda</tspan> <tspan x="0" y="73.703">Manuais</tspan>
            </text>
            <text font-family="Roboto-Bold, Roboto" font-size="16" font-weight="bold" transform="translate(529 322.378)">
                <tspan x="0" y="14.351">Ajuda</tspan>
            </text>
            <text font-family="Roboto-Medium, Roboto" font-size="14" font-weight="400" transform="translate(767 92.108)">
                <tspan x="0" y="43.703">Conselho aos usuários</tspan> <tspan x="0" y="73.703">Pesquisa Anatel</tspan> <tspan x="0" y="103.703">Relatórios de transparência</tspan> <tspan x="0" y="133.703">Responsabilidade Social</tspan> <tspan x="0" y="163.703">Acessibilidade </tspan>
            </text>
            <text font-family="Roboto-Bold, Roboto" font-size="16" font-weight="bold" transform="translate(767 92.108)">
                <tspan x="0" y="14.351">Nossas responsabilidades</tspan>
            </text>
            <g>
                <text font-family="Roboto-Medium, Roboto" font-size="14" font-weight="400" transform="translate(528 92.108)">
                    <tspan x="0" y="39.865">Nossa história</tspan> <tspan x="0" y="69.865">Imprensa</tspan> <tspan x="0" y="99.865">Prêmios conquistados</tspan> <tspan x="0" y="129.865">Credenciamento</tspan> <tspan x="0" y="159.865">Trabalhe com a gente</tspan> <tspan x="0" y="189.865">Promoção</tspan>
                </text>
                <text font-family="Roboto-Bold, Roboto" font-size="16" font-weight="bold" transform="translate(528 92.108)">
                    <tspan x="0" y="14.351">Sobre</tspan>
                </text>
            </g>
        </g>
    </g>
</svg>
