<svg xmlns="http://www.w3.org/2000/svg" xmlns:xlink="http://www.w3.org/1999/xlink" width="1440" height="568" viewBox="0 0 1440 568">
    <defs>
        <path id="a" d="M129.423 0c7.863 0 15.172 3.361 20.19 9.092C153.71 13.77 156 19.712 156 26c0 14.366-11.905 26-26.577 26-6.164 0-12.01-2.06-16.704-5.776a1.095 1.095 0 0 1-.18-1.534 1.087 1.087 0 0 1 1.53-.181c4.312 3.413 9.683 5.306 15.354 5.306 13.481 0 24.399-10.669 24.399-23.815 0-5.75-2.094-11.183-5.845-15.466-4.608-5.261-11.322-8.35-18.554-8.35-5.803 0-11.289 1.983-15.646 5.542-.467.38-1.153.31-1.532-.158a1.095 1.095 0 0 1 .157-1.537C117.145 2.158 123.116 0 129.423 0zm-98.7 29.238c1.302 0 2.314.482 3.037 1.446.722.963 1.084 2.291 1.084 3.984v.146c0 1.628-.37 2.932-1.109 3.912s-1.736 1.47-2.993 1.47c-1.068 0-1.93-.372-2.588-1.114v4.98h-2.822V29.434h2.617l.098 1.035c.683-.82 1.575-1.23 2.676-1.23zm-11.26 0c1.302 0 2.314.482 3.037 1.446.723.963 1.084 2.291 1.084 3.984v.146c0 1.628-.37 2.932-1.108 3.912-.74.98-1.737 1.47-2.994 1.47-1.067 0-1.93-.372-2.587-1.114v4.98h-2.823V29.434h2.617l.098 1.035c.684-.82 1.576-1.23 2.676-1.23zm79.951 0c1.445 0 2.583.456 3.413 1.367.83.912 1.245 2.204 1.245 3.877v1.153h-6.728c.09.69.366 1.243.825 1.66.459.417 1.04.625 1.743.625 1.087 0 1.937-.394 2.549-1.182l1.387 1.553c-.424.599-.996 1.066-1.72 1.401-.722.336-1.523.503-2.401.503-1.55 0-2.811-.475-3.785-1.425-.973-.951-1.46-2.217-1.46-3.8v-.273c0-1.06.205-2.01.616-2.846.41-.837.99-1.482 1.743-1.934.752-.452 1.61-.679 2.573-.679zm-18.418 0c1.426 0 2.59.436 3.491 1.309.902.872 1.405 2.057 1.51 3.555l.019.722c0 1.621-.453 2.922-1.358 3.902s-2.119 1.47-3.642 1.47c-1.524 0-2.74-.489-3.648-1.466-.908-.976-1.362-2.304-1.362-3.984v-.127c0-1.048.202-1.982.605-2.803a4.432 4.432 0 0 1 1.743-1.904c.759-.45 1.64-.674 2.642-.674zm-7.637-2.402v2.598h1.807v2.07h-1.807v5.273c0 .391.075.67.225.84.15.17.436.254.86.254a4.5 4.5 0 0 0 .83-.068v2.138a5.81 5.81 0 0 1-1.71.254c-1.979 0-2.988-.999-3.027-2.998v-5.693h-1.543v-2.07h1.543v-2.598h2.822zm-10.4-1.25c1.016 0 1.92.184 2.715.552.794.368 1.411.887 1.85 1.557.44.67.66 1.433.66 2.285h-2.93c0-.65-.205-1.157-.615-1.518-.41-.361-.987-.542-1.729-.542-.716 0-1.273.151-1.67.454a1.432 1.432 0 0 0-.595 1.196c0 .463.232.85.698 1.162.465.313 1.15.606 2.055.88 1.667.5 2.881 1.122 3.643 1.865.762.742 1.143 1.666 1.143 2.773 0 1.23-.466 2.196-1.397 2.896-.93.7-2.184 1.05-3.76 1.05-1.093 0-2.09-.2-2.988-.601-.898-.4-1.584-.95-2.056-1.646s-.708-1.504-.708-2.422h2.94c0 1.57.937 2.354 2.812 2.354.697 0 1.24-.142 1.631-.425.39-.283.586-.679.586-1.186 0-.554-.195-.979-.586-1.275-.39-.296-1.094-.609-2.11-.937-1.015-.33-1.819-.653-2.411-.972-1.615-.872-2.422-2.048-2.422-3.525 0-.769.216-1.454.65-2.056.432-.602 1.054-1.073 1.864-1.411.811-.339 1.72-.508 2.73-.508zm-16.514 3.652c1.446 0 2.583.456 3.413 1.367.83.912 1.246 2.204 1.246 3.877v1.153h-6.729c.091.69.366 1.243.825 1.66.46.417 1.04.625 1.743.625 1.088 0 1.937-.394 2.55-1.182l1.386 1.553c-.423.599-.996 1.066-1.719 1.401-.723.336-1.523.503-2.402.503-1.55 0-2.811-.475-3.784-1.425-.974-.951-1.46-2.217-1.46-3.8v-.273c0-1.06.205-2.01.615-2.846.41-.837.991-1.482 1.743-1.934.752-.452 1.61-.679 2.573-.679zM8.076 25.781L13.398 40h-3.115l-.986-2.93H4.16L3.184 40H.068l5.293-14.219h2.715zM39.57 25v15h-2.832V25h2.832zm53.282 4.238c.312 0 .605.043.878.127l-.039 2.715a7.667 7.667 0 0 0-1.015-.078c-1.068 0-1.768.361-2.1 1.084V40h-2.822V29.434h2.666l.078 1.26c.566-.97 1.351-1.456 2.354-1.456zm-11.856 2.285c-.69 0-1.224.269-1.601.806-.378.537-.567 1.369-.567 2.495 0 1.003.189 1.77.567 2.3.377.53.917.796 1.62.796.684 0 1.218-.262 1.602-.786.384-.524.576-1.363.576-2.515 0-.983-.192-1.745-.576-2.285-.384-.54-.924-.81-1.62-.81zm-51.016.01c-.885 0-1.494.339-1.826 1.016v4.326c.345.697.96 1.045 1.846 1.045 1.348 0 2.021-1.104 2.021-3.31 0-.984-.174-1.742-.522-2.276-.348-.534-.854-.8-1.519-.8zm-11.26 0c-.885 0-1.493.339-1.825 1.016v4.326c.345.697.96 1.045 1.845 1.045 1.348 0 2.022-1.104 2.022-3.31 0-.984-.174-1.742-.523-2.276-.348-.534-.854-.8-1.518-.8zm116.401-13.515c.758.033 2.895.295 4.269 2.221-.114.07-2.55 1.428-2.524 4.263.03 3.388 3.098 4.516 3.134 4.53-.029.076-.492 1.607-1.618 3.183-.97 1.366-1.98 2.727-3.572 2.754-1.56.03-2.062-.888-3.848-.888s-2.344.861-3.822.917c-1.537.058-2.702-1.475-3.684-2.834-2.006-2.78-3.535-7.859-1.482-11.283 1.024-1.703 2.847-2.778 4.829-2.808 1.51-.024 2.93.973 3.852.973.922 0 2.648-1.205 4.466-1.028zM6.72 29.375L4.95 34.697h3.555l-1.787-5.322zm92.685 2.148c-.56 0-1.014.19-1.362.567-.348.377-.571.918-.669 1.62h3.926v-.224c-.013-.625-.182-1.108-.508-1.45-.326-.342-.788-.513-1.387-.513zm-52.968 0c-.56 0-1.014.19-1.363.567-.348.377-.571.918-.669 1.62h3.926v-.224c-.013-.625-.182-1.108-.508-1.45-.325-.342-.787-.513-1.386-.513zM24.117 10.467c.889 0 1.592.335 2.11 1.005.516.67.775 1.602.775 2.796v.116c0 1.125-.258 2.032-.773 2.72-.514.689-1.212 1.033-2.091 1.033-.898 0-1.604-.285-2.12-.855v3.562h-1.264v-10.24h1.155l.062.82c.515-.638 1.23-.957 2.146-.957zm7.513 0c1.007 0 1.822.348 2.444 1.046.622.697.933 1.624.933 2.782v.089c0 .72-.138 1.366-.414 1.938a3.14 3.14 0 0 1-1.182 1.336c-.513.32-1.102.479-1.767.479-1.003 0-1.815-.349-2.437-1.046-.623-.697-.934-1.62-.934-2.769v-.089c0-.724.143-1.376.428-1.955a3.187 3.187 0 0 1 1.19-1.34c.507-.314 1.087-.471 1.739-.471zm-15.415 0c.838 0 1.519.216 2.04.65.522.432.783.986.783 1.66h-1.271c0-.346-.147-.645-.441-.895-.294-.25-.665-.376-1.111-.376-.46 0-.82.1-1.08.3-.26.201-.39.463-.39.787 0 .305.12.535.362.69.242.155.678.303 1.31.445.63.14 1.142.31 1.534.505.392.196.683.432.872.708.189.276.283.612.283 1.008 0 .661-.264 1.19-.793 1.59-.528.398-1.214.598-2.057.598-.593 0-1.117-.105-1.572-.315a2.557 2.557 0 0 1-1.07-.878 2.117 2.117 0 0 1-.386-1.22h1.264c.023.423.193.76.51 1.008.316.248.734.372 1.254.372.478 0 .862-.096 1.152-.29.29-.194.434-.452.434-.776 0-.342-.129-.607-.386-.796-.258-.19-.707-.352-1.347-.49-.64-.136-1.149-.3-1.525-.491-.376-.192-.653-.42-.834-.684a1.635 1.635 0 0 1-.27-.943c0-.606.257-1.119.77-1.538.512-.42 1.167-.63 1.965-.63zm41.255 0c.961 0 1.709.317 2.242.95.533.633.8 1.54.8 2.72v.527H55.5c.018.73.231 1.318.64 1.767.407.449.925.673 1.554.673.447 0 .825-.09 1.135-.273.31-.182.581-.424.814-.725l.772.602c-.62.952-1.55 1.429-2.789 1.429-1.003 0-1.818-.33-2.447-.988-.63-.659-.944-1.54-.944-2.642v-.233c0-.733.14-1.388.42-1.965a3.28 3.28 0 0 1 1.177-1.353 2.956 2.956 0 0 1 1.637-.49zm21.97 0c.853 0 1.52.213 2.003.639.483.426.734 1.013.752 1.76v3.405c0 .679.087 1.219.26 1.62V18H81.13c-.073-.146-.132-.406-.178-.78-.588.611-1.29.917-2.105.917-.73 0-1.328-.206-1.795-.619a2.002 2.002 0 0 1-.7-1.569c0-.77.292-1.368.878-1.794.586-.426 1.41-.64 2.471-.64h1.23v-.58c0-.442-.131-.795-.396-1.057-.264-.262-.654-.393-1.169-.393-.45 0-.83.114-1.135.342-.305.228-.458.504-.458.827h-1.271c0-.369.131-.725.393-1.07a2.683 2.683 0 0 1 1.066-.816c.45-.2.943-.301 1.48-.301zM3.965 8.047c.866 0 1.631.191 2.297.574.665.383 1.179.927 1.541 1.634.363.706.546 1.517.55 2.433v.636c0 .939-.18 1.762-.543 2.468a3.823 3.823 0 0 1-1.552 1.627c-.672.378-1.455.572-2.348.581H1.155V8.047h2.81zm68.325 2.42c1.563 0 2.352.882 2.365 2.645V18h-1.264v-4.895c-.005-.533-.127-.927-.366-1.182-.24-.255-.612-.383-1.118-.383-.41 0-.77.11-1.08.328-.31.219-.551.506-.724.861V18h-1.265v-7.396h1.196l.041.93c.565-.712 1.304-1.067 2.215-1.067zm-32.245 0c1.563 0 2.351.882 2.365 2.645V18h-1.264v-4.895c-.005-.533-.127-.927-.366-1.182-.24-.255-.612-.383-1.118-.383-.41 0-.77.11-1.08.328-.31.219-.551.506-.725.861V18h-1.264v-7.396h1.196l.041.93c.565-.712 1.303-1.067 2.215-1.067zM63.349 7.5V18h-1.265V7.5h1.265zm-15.012 3.104l1.88 5.68 1.832-5.68h1.292L50.688 18h-.963l-2.68-7.396h1.292zm-2.646 0V18H44.42v-7.396h1.271zm-34.18 0V18h-1.264v-7.396h1.265zM134.975 14c.158 1.017-.421 2.036-1.285 2.768-.86.732-2.275 1.3-3.659 1.225-.185-.994.513-2.03 1.31-2.68.886-.73 2.394-1.279 3.634-1.313zM31.63 11.506c-.624 0-1.128.248-1.51.745-.384.497-.575 1.208-.575 2.133 0 .82.19 1.479.57 1.975.381.497.89.745 1.529.745.642 0 1.153-.251 1.53-.755.38-.503.568-1.209.568-2.116 0-.81-.192-1.468-.577-1.972-.386-.503-.897-.755-1.535-.755zm-7.889.034c-.765 0-1.34.34-1.722 1.019v3.534c.378.674.957 1.011 1.736 1.011.606 0 1.088-.24 1.446-.72.357-.481.536-1.196.536-2.144 0-.834-.177-1.492-.533-1.975-.355-.483-.843-.725-1.463-.725zm57.19 2.871h-.992c-1.549 0-2.324.454-2.324 1.36 0 .397.132.707.397.93.264.223.604.335 1.018.335.397 0 .773-.102 1.128-.307a1.86 1.86 0 0 0 .773-.8V14.41zM3.999 9.127H2.468v7.8h1.38c1.012 0 1.8-.315 2.362-.944.563-.629.845-1.524.845-2.686v-.581c0-1.13-.266-2.009-.797-2.635-.53-.627-1.284-.945-2.259-.954zm53.47 2.379c-.51 0-.938.186-1.284.557-.347.371-.561.892-.643 1.562h3.705v-.096c-.036-.642-.21-1.14-.52-1.493-.31-.354-.729-.53-1.257-.53zm-10.233-4l-1.832 2.01h-1.018l1.32-2.01h1.53zM10.89 7.91c.246 0 .433.07.56.212a.747.747 0 0 1 .192.52.722.722 0 0 1-.192.512c-.127.137-.314.205-.56.205-.246 0-.432-.068-.557-.205a.73.73 0 0 1-.188-.512c0-.205.062-.379.188-.52.125-.141.31-.212.557-.212z"/>
        <path id="c" d="M130.135.118c7.785 0 15.023 3.318 19.992 8.975 4.056 4.617 6.324 10.484 6.324 16.691 0 14.182-11.788 25.667-26.316 25.667-6.104 0-11.892-2.034-16.54-5.702a1.078 1.078 0 0 1 1.336-1.693c4.27 3.37 9.588 5.238 15.204 5.238 13.349 0 24.16-10.532 24.16-23.51 0-5.676-2.074-11.04-5.788-15.267-4.563-5.194-11.211-8.242-18.372-8.242-5.746 0-11.179 1.956-15.493 5.47a1.078 1.078 0 0 1-1.362-1.673c4.697-3.824 10.61-5.954 16.855-5.954zm-83.066 28.87c1.3 0 2.34.651 2.99 1.302v-.911h2.34v9.893c0 4.036-2.34 5.728-5.2 5.728-2.73 0-4.291-1.822-4.941-3.254l2.08-.912c.26.912 1.3 1.953 2.73 1.953 1.82 0 2.991-1.172 2.991-3.254v-.782h-.13c-.52.651-1.56 1.302-2.86 1.302-2.861 0-5.331-2.343-5.331-5.467 0-3.124 2.6-5.598 5.33-5.598zm54.61.39l2.86 7.03h.13l2.73-7.03H110l-6.631 15.362h-2.47l2.47-5.468-4.291-9.893h2.6zm-38.748-.26c2.861 0 4.161 2.213 4.681 3.515l.26.651-7.411 3.124c.65 1.172 1.43 1.693 2.73 1.693s2.08-.651 2.731-1.563l1.82 1.302c-.52.911-2.08 2.474-4.55 2.474-3.121 0-5.462-2.474-5.462-5.598 0-3.385 2.34-5.598 5.201-5.598zm-39.917 0c3.12 0 5.591 2.213 5.591 5.598 0 3.254-2.47 5.598-5.59 5.598-3.121 0-5.592-2.474-5.592-5.598 0-3.254 2.47-5.598 5.591-5.598zm12.092 0c3.121 0 5.591 2.213 5.591 5.598 0 3.254-2.47 5.598-5.59 5.598-3.121 0-5.592-2.474-5.592-5.598 0-3.254 2.47-5.598 5.591-5.598zM8.712 23c2.6 0 4.42 1.041 5.85 2.343l-1.69 1.693c-1.04-.912-2.47-1.693-4.29-1.693-3.381 0-6.112 2.734-6.112 6.249 0 3.515 2.6 6.248 6.112 6.248 2.21 0 3.51-.911 4.29-1.692.65-.651 1.17-1.692 1.3-2.994h-5.59V30.81h8.061c.13.39.13.91.13 1.432 0 1.692-.52 3.905-2.08 5.467-1.56 1.692-3.38 2.473-5.981 2.473C4.03 40.183 0 36.278 0 31.592 0 26.905 4.03 23 8.712 23zm85.295 5.988c2.73 0 4.941 1.692 5.201 4.556v6.249h-2.34V38.49h-.13c-.65.781-1.43 1.562-3.121 1.562-2.08 0-4.03-1.432-4.03-3.645 0-2.343 2.34-3.645 4.68-3.645 1.04 0 2.08.39 2.47.651v-.13c-.13-1.302-1.3-2.083-2.6-2.083-.91 0-1.69.26-2.21 1.172l-2.21-.911c.65-1.693 2.47-2.474 4.29-2.474zm-5.981-5.467v16.272h-2.47V23.52h2.47zm-9.102 0c2.73 0 5.331 1.952 5.331 5.077 0 3.124-2.6 5.077-5.33 5.077h-3.381v6.118h-2.47V23.52zm-22.494 0v16.272h-2.47V23.52h2.47zm37.967 11.325c-1.17 0-2.6.39-2.6 1.692 0 1.042 1.17 1.432 1.95 1.432 1.3 0 2.6-1.041 2.86-2.603-.65-.26-1.17-.52-2.21-.52zM47.2 31.201c-1.69 0-3.121 1.432-3.121 3.385 0 1.952 1.43 3.384 3.12 3.384 1.69 0 2.991-1.432 2.991-3.384 0-1.953-1.3-3.385-2.99-3.385zm-24.185 0c-1.69 0-3.12 1.432-3.12 3.385 0 1.952 1.43 3.384 3.12 3.384 1.69 0 3.12-1.432 3.12-3.384 0-2.083-1.43-3.385-3.12-3.385zm12.092 0c-1.69 0-3.12 1.432-3.12 3.385 0 1.952 1.43 3.384 3.12 3.384 1.69 0 3.121-1.432 3.121-3.384 0-2.083-1.43-3.385-3.12-3.385zm89.586-16.183l9.06 10.489-8.977 10.384c-.364-.1-.6-.468-.6-1.039v-18.82c0-.475.162-.811.426-.968l.091-.046zm9.578 11.089l2.655 3.075-10.903 6.31 8.248-9.385zM62.93 31.2c-1.17 0-2.86 1.172-2.86 3.255l4.94-2.083c-.26-.651-1.17-1.172-2.08-1.172zm16.123-5.467h-3.51v5.597h3.51c1.69 0 2.73-1.432 2.86-2.864 0-1.171-1.04-2.733-2.86-2.733zm58.676-3.564l4.212 2.438c.797.461.805 1.205 0 1.67l-4.319 2.5-2.816-3.282 2.923-3.326zm-11.481-6.646L137 21.747l-2.715 3.141-8.036-9.364zM24.117 10.467c.889 0 1.592.335 2.11 1.005.516.67.775 1.602.775 2.796v.116c0 1.125-.258 2.032-.773 2.72-.514.689-1.212 1.033-2.091 1.033-.898 0-1.604-.285-2.12-.855v3.562h-1.264v-10.24h1.155l.062.82c.515-.638 1.23-.957 2.146-.957zm55.323 0c.853 0 1.52.213 2.003.639.483.426.734 1.013.752 1.76v3.405c0 .679.087 1.219.26 1.62V18H81.13c-.073-.146-.132-.406-.178-.78-.588.611-1.29.917-2.105.917-.73 0-1.328-.206-1.795-.619a2.002 2.002 0 0 1-.7-1.569c0-.77.292-1.368.878-1.794.586-.426 1.41-.64 2.471-.64h1.23v-.58c0-.442-.131-.795-.396-1.057-.264-.262-.654-.393-1.169-.393-.45 0-.83.114-1.135.342-.305.228-.458.504-.458.827h-1.271c0-.369.131-.725.393-1.07a2.683 2.683 0 0 1 1.066-.816c.45-.2.943-.301 1.48-.301zm-63.225 0c.838 0 1.519.216 2.04.65.522.432.783.986.783 1.66h-1.271c0-.346-.147-.645-.441-.895-.294-.25-.665-.376-1.111-.376-.46 0-.82.1-1.08.3-.26.201-.39.463-.39.787 0 .305.12.535.362.69.242.155.678.303 1.31.445.63.14 1.142.31 1.534.505.392.196.683.432.872.708.189.276.283.612.283 1.008 0 .661-.264 1.19-.793 1.59-.528.398-1.214.598-2.057.598-.593 0-1.117-.105-1.572-.315a2.557 2.557 0 0 1-1.07-.878 2.117 2.117 0 0 1-.386-1.22h1.264c.023.423.193.76.51 1.008.316.248.734.372 1.254.372.478 0 .862-.096 1.152-.29.29-.194.434-.452.434-.776 0-.342-.129-.607-.386-.796-.258-.19-.707-.352-1.347-.49-.64-.136-1.149-.3-1.525-.491-.376-.192-.653-.42-.834-.684a1.635 1.635 0 0 1-.27-.943c0-.606.257-1.119.77-1.538.512-.42 1.167-.63 1.965-.63zm41.255 0c.961 0 1.709.317 2.242.95.533.633.8 1.54.8 2.72v.527H55.5c.018.73.231 1.318.64 1.767.407.449.925.673 1.554.673.447 0 .825-.09 1.135-.273.31-.182.581-.424.814-.725l.772.602c-.62.952-1.55 1.429-2.789 1.429-1.003 0-1.818-.33-2.447-.988-.63-.659-.944-1.54-.944-2.642v-.233c0-.733.14-1.388.42-1.965a3.28 3.28 0 0 1 1.177-1.353 2.956 2.956 0 0 1 1.637-.49zm-25.84 0c1.007 0 1.822.348 2.444 1.046.622.697.933 1.624.933 2.782v.089c0 .72-.138 1.366-.414 1.938a3.14 3.14 0 0 1-1.182 1.336c-.513.32-1.102.479-1.767.479-1.003 0-1.815-.349-2.437-1.046-.623-.697-.934-1.62-.934-2.769v-.089c0-.724.143-1.376.428-1.955a3.187 3.187 0 0 1 1.19-1.34c.507-.314 1.087-.471 1.739-.471zM63.349 7.5V18h-1.265V7.5h1.265zm-59.384.547c.866 0 1.631.191 2.297.574.665.383 1.179.927 1.541 1.634.363.706.546 1.517.55 2.433v.636c0 .939-.18 1.762-.543 2.468a3.823 3.823 0 0 1-1.552 1.627c-.672.378-1.455.572-2.348.581H1.155V8.047h2.81zm41.726 2.557V18H44.42v-7.396h1.271zm26.599-.137c1.563 0 2.352.882 2.365 2.645V18h-1.264v-4.895c-.005-.533-.127-.927-.366-1.182-.24-.255-.612-.383-1.118-.383-.41 0-.77.11-1.08.328-.31.219-.551.506-.724.861V18h-1.265v-7.396h1.196l.041.93c.565-.712 1.304-1.067 2.215-1.067zm-23.953.137l1.88 5.68 1.832-5.68h1.292L50.688 18h-.963l-2.68-7.396h1.292zm-36.825 0V18h-1.265v-7.396h1.265zm28.533-.137c1.563 0 2.351.882 2.365 2.645V18h-1.264v-4.895c-.005-.533-.127-.927-.366-1.182-.24-.255-.612-.383-1.118-.383-.41 0-.77.11-1.08.328-.31.219-.551.506-.725.861V18h-1.264v-7.396h1.196l.041.93c.565-.712 1.303-1.067 2.215-1.067zM23.74 11.54c-.765 0-1.34.34-1.722 1.019v3.534c.378.674.957 1.011 1.736 1.011.606 0 1.088-.24 1.446-.72.357-.481.536-1.196.536-2.144 0-.834-.177-1.492-.533-1.975-.355-.483-.843-.725-1.463-.725zm7.889-.034c-.624 0-1.128.248-1.51.745-.384.497-.575 1.208-.575 2.133 0 .82.19 1.479.57 1.975.381.497.89.745 1.529.745.642 0 1.153-.251 1.53-.755.38-.503.568-1.209.568-2.116 0-.81-.192-1.468-.577-1.972-.386-.503-.897-.755-1.535-.755zm49.3 2.905h-.99c-1.55 0-2.325.454-2.325 1.36 0 .397.132.707.397.93.264.223.604.335 1.018.335.397 0 .773-.102 1.128-.307a1.86 1.86 0 0 0 .773-.8V14.41zM4 9.127H2.468v7.8h1.38c1.012 0 1.8-.315 2.362-.944.563-.629.845-1.524.845-2.686v-.581c0-1.13-.266-2.009-.797-2.635-.53-.627-1.284-.945-2.259-.954zm53.47 2.379c-.51 0-.938.186-1.284.557-.347.371-.561.892-.643 1.562h3.705v-.096c-.036-.642-.21-1.14-.52-1.493-.31-.354-.729-.53-1.257-.53zm-10.233-4l-1.832 2.01h-1.018l1.32-2.01h1.53zM10.89 7.91c.246 0 .433.07.56.212a.747.747 0 0 1 .192.52.722.722 0 0 1-.192.512c-.127.137-.314.205-.56.205-.246 0-.432-.068-.557-.205a.73.73 0 0 1-.188-.512c0-.205.062-.379.188-.52.125-.141.31-.212.557-.212z"/>
        <path id="e" d="M0 .095h47.905v47.719H0z"/>
        <path id="g" d="M18.229.003c4.858.07 8.481 1.223 11.478 3.352l.484-2.501h8.976l-2.61 12.263L47.11.854h8.913l4.85 9.03 6.971-9.03h10.368L63.541 18.24l-2.183 10.86h-8.852l2.485-12.14-4.546-7.871-5.942 6.528L52.506 29.1h-10.67l-6.247-11.225L33.466 29.1h-8.972l1.272-6.466c-2.425 5.551-6.971 7.382-13.155 7.382-5.21 0-9.998-1.584-12.606-4.448v-.012l4.906-5.79c2.121 2.075 5.396 3.173 8.851 3.173 2.425 0 3.88-.915 3.94-2.136.062-2.074-3.515-2.379-6.79-3.293-3.698-1.038-7.638-3.539-6.608-8.786C5.08 4.76 8.56.144 17.35.004h.879zm11.055 5.305l-3.578 4.209c-3.82-2.135-6.365-2.622-9.094-2.622-1.515 0-3.213.365-3.456 1.83-.182 1.28 1.03 1.585 3.578 2.135l.538.114c4.487.965 8.882 2.328 9.464 6.962l2.548-12.628zM81.82.972c.738 0 1.299.273 1.685.818.386.546.481 1.205.285 1.975-.196.771-.626 1.43-1.29 1.977-.663.547-1.364.821-2.1.821-.746 0-1.312-.273-1.7-.819-.386-.546-.482-1.206-.285-1.979.196-.77.626-1.429 1.29-1.975.665-.545 1.37-.818 2.115-.818zm-.102.385c-.629 0-1.226.235-1.791.704-.565.47-.933 1.038-1.103 1.704-.169.666-.09 1.235.236 1.706.326.471.804.707 1.433.707s1.225-.236 1.788-.707c.563-.47.93-1.04 1.1-1.706.168-.663.09-1.23-.233-1.702-.324-.47-.8-.706-1.43-.706zm.048.819c.677 0 .934.324.77.971-.12.471-.347.753-.68.847.268.072.359.277.274.614l-.177.695h-.634l.147-.578c.074-.295-.035-.442-.329-.442h-.808l-.26 1.02h-.633l.794-3.127h1.536zm-.198.562h-.846l-.25.983h.808c.335 0 .545-.166.629-.498.082-.323-.031-.485-.34-.485z"/>
    </defs>
    <g fill="none" fill-rule="evenodd">
        <path fill="#FAFAFF" d="M0 0h1440v568H0z"/>
        <path fill="#F1F2FA" fill-rule="nonzero" d="M0 0h1440v592H0z"/>
        <path fill="#FFF" fill-rule="nonzero" d="M0 464h1440v48H0z"/>
        <text fill="#000" fill-opacity=".6" font-family="Roboto-Regular, Roboto" font-size="14" transform="translate(0 464)">
            <tspan x="168" y="69">® Todos os direitos reservados 2018. Todas as marcas SKY e qualquer propriedade intelectual inserida nelas são de propriedade da SKY Internacional AG e usadas pela SKY </tspan> <tspan x="168" y="89">Serviços de Banda Larga LTDA. mediante licença.</tspan>
        </text>
        <text fill="#000" fill-opacity=".87" font-family="Roboto-Regular, Roboto" font-size="14" transform="translate(0 464)">
            <tspan x="168" y="13">Início | Política de Privacidade | Contratos gerais | Contratos Pré-pago | Cancelamento | Ouvidoria I Consumidor.gov</tspan>
        </text>
        <text fill="#000" fill-opacity=".6" font-family="Roboto-Bold, Roboto" font-size="16" font-weight="bold" transform="translate(170 96)">
            <tspan x="64" y="15">Baixe no seu celular o app Minha SKY </tspan> <tspan x="64" y="34">e divirta-se. </tspan>
        </text>
        <g transform="translate(234 161)">
            <mask id="b" fill="#fff">
                <use xlink:href="#a"/>
            </mask>
            <g fill="#000" fill-opacity=".6" mask="url(#b)">
                <path d="M0-1h160v54H0z"/>
            </g>
        </g>
        <g transform="translate(419 161)">
            <mask id="d" fill="#fff">
                <use xlink:href="#c"/>
            </mask>
            <use fill="#FFF" fill-rule="nonzero" xlink:href="#c"/>
            <g fill="#000" fill-opacity=".6" mask="url(#d)">
                <path d="M0-1h160v54H0z"/>
            </g>
        </g>
        <g transform="translate(170 96.091)">
            <mask id="f" fill="#fff">
                <use xlink:href="#e"/>
            </mask>
            <path fill="#E1413E" d="M47.905 35.742c0 6.64-5.454 12.072-12.12 12.072H12.12C5.454 47.814 0 42.381 0 35.742V12.167C0 5.527 5.454.095 12.12.095h23.666c6.665 0 12.119 5.432 12.119 12.072v23.575z" mask="url(#f)"/>
        </g>
        <path fill="#FFF" d="M187.894 123.151c-1.727-1.005-2.878-1.235-4.112-1.235-.686 0-1.453.172-1.563.862-.082.603.466.747 1.618 1.006 2.11.46 4.248 1.063 4.522 3.334l1.152-5.95-1.617 1.983zm15.9.173l3.152-4.254h4.688L205 127.262l-.987 5.116h-4.002l1.124-5.72-2.056-3.708-2.686 3.076 3.618 6.352h-4.824l-2.825-5.289-.96 5.289h-4.057l.576-3.047c-1.097 2.616-3.152 3.478-5.948 3.478-2.358 0-4.524-.747-5.702-2.098l2.22-2.731c.96.977 2.44 1.495 4.002 1.495 1.097 0 1.755-.431 1.782-1.007.027-.976-1.59-1.12-3.07-1.551-1.672-.489-3.454-1.667-2.988-4.14.356-1.897 1.974-4.11 6.085-4.11 2.303 0 4.003.546 5.4 1.581l.22-1.178h4.058l-1.18 5.777 4.771-5.777h4.03l2.193 4.254zM185.732 115.104l.765-3.94-.036-.013-1.064 1.68-.777 1.166h-1.386l-.335-1.226-.394-1.62-.048.036-.765 3.917h-1.793l1.614-8.287h1.625l.634 2.405.562 2.489h.048l1.506-2.489 1.553-2.405h1.698l-1.614 8.287zM189.952 108.306l.286-1.489h1.674l-.287 1.489h-1.673zm-1.327 6.798l1.147-5.894h1.674l-1.148 5.894h-1.673zM194.733 115.104l.681-3.488c.064-.302.028-.528-.107-.68a.703.703 0 0 0-.55-.225c-.247 0-.466.075-.658.226-.19.15-.319.377-.382.679l-.682 3.488h-1.673l1.16-5.905h1.673l-.084.44h.024c.183-.135.399-.252.646-.351.247-.1.482-.149.705-.149.294 0 .562.046.8.137.24.091.435.226.587.405.15.178.254.4.31.667.056.266.048.57-.024.91l-.753 3.846h-1.673zM200.829 115.116l.681-3.488c.12-.604-.1-.905-.657-.905-.247 0-.466.075-.658.226-.19.15-.319.377-.382.679l-.681 3.488h-1.674l1.721-8.668h1.674l-.646 3.18.048.011c.183-.135.395-.25.634-.345.239-.095.47-.143.693-.143.295 0 .562.046.8.137.24.091.435.226.587.405.15.178.255.4.31.666.056.267.048.57-.023.911l-.73 3.846h-1.697zM205.539 112.925a.83.83 0 0 0 .143.483c.095.139.27.208.526.208a.775.775 0 0 0 .568-.232c.155-.155.28-.341.376-.56.096-.218.163-.444.203-.678.04-.235.06-.431.06-.59 0-.11-.008-.218-.024-.321a.762.762 0 0 0-.09-.268.463.463 0 0 0-.19-.179.713.713 0 0 0-.33-.065.813.813 0 0 0-.597.238c-.16.159-.287.353-.383.583a3.18 3.18 0 0 0-.203.72c-.04.25-.06.47-.06.661m1.076-3.774c.183 0 .387.036.61.107.223.072.414.199.574.381l.024-.012.083-.417h1.674l-1.148 5.894h-1.673l.095-.464-.035-.012a1.885 1.885 0 0 1-.598.381c-.12.048-.24.088-.359.12-.12.03-.227.047-.322.047-.36 0-.652-.054-.879-.16a1.292 1.292 0 0 1-.526-.43 1.58 1.58 0 0 1-.251-.607 3.634 3.634 0 0 1-.066-.696c0-.453.046-.921.138-1.405a4.56 4.56 0 0 1 .466-1.334c.219-.405.508-.738.866-1 .359-.262.801-.393 1.327-.393"/>
        <g fill="#000" fill-opacity=".6">
            <path d="M1264.51 27.5a1.005 1.005 0 0 1-1.005-1c0-.552.443-1 .995-1h.01a1 1 0 1 1 0 2zm-5.47 1.457a2.991 2.991 0 0 0-2.676 1.651 2.995 2.995 0 0 0 .558 3.47 2.992 2.992 0 0 0 3.47.558 2.993 2.993 0 0 0 1.619-3.119 2.983 2.983 0 0 0-2.971-2.56zm.002 8.002a4.993 4.993 0 0 1-3.534-1.467 4.99 4.99 0 0 1-.931-5.784 4.988 4.988 0 0 1 5.2-2.697 4.97 4.97 0 0 1 4.212 4.213 5.006 5.006 0 0 1-4.947 5.735zM1254 23c-2.205 0-4 1.794-4 4v10c0 2.206 1.795 4 4 4h10c2.206 0 4-1.794 4-4V27c0-2.206-1.794-4-4-4h-10zm10 20h-10c-3.308 0-6-2.691-6-6V27c0-3.309 2.692-6 6-6h10c3.309 0 6 2.691 6 6v10c0 3.309-2.691 6-6 6zM1209.75 29.2V32.3l2.728-1.55-2.727-1.552zm-1 5.82a1.003 1.003 0 0 1-1-1v-6.54a.998.998 0 0 1 1.495-.869l5.75 3.27a.998.998 0 0 1 0 1.738l-5.75 3.27a1 1 0 0 1-.494.131zM1211 24c-2.712 0-7.172.114-8.341.426a1.78 1.78 0 0 0-1.228 1.276 28.19 28.19 0 0 0-.43 5.043c-.011 1.73.139 3.462.444 5.158.147.498.623.97 1.22 1.132 1.163.311 5.623.425 8.336.425s7.173-.114 8.342-.426a1.78 1.78 0 0 0 1.228-1.277c.287-1.602.436-3.308.43-5.004a28.07 28.07 0 0 0-.437-5.119 1.79 1.79 0 0 0-1.235-1.252c-1.28-.312-6.448-.382-8.328-.382zm0 15.46c-.717 0-7.062-.014-8.857-.494a3.806 3.806 0 0 1-2.644-2.612 29.907 29.907 0 0 1-.498-5.61 30.063 30.063 0 0 1 .476-5.462c.342-1.375 1.353-2.417 2.652-2.785 1.809-.484 8.154-.497 8.872-.497.716 0 7.052.012 8.837.448a3.803 3.803 0 0 1 2.687 2.794 29.97 29.97 0 0 1 .476 5.514 30.04 30.04 0 0 1-.476 5.422c-.342 1.375-1.353 2.417-2.652 2.784-1.81.484-8.154.498-8.872.498z"/>
            <path fill-rule="nonzero" d="M1173.422 22.193c.755-.533 1.766.157 1.548 1.056a8.736 8.736 0 0 1-1.995 3.78c.015.161.023.325.023.489 0 11.876-11.444 17.976-21.482 12.39-.92-.511-.527-1.917.526-1.875a10.624 10.624 0 0 0 4.873-.969c-2.204-1.36-3.615-3.161-4.307-5.292-.715-2.2-.61-4.512-.014-6.708.18-.664.364-1.164.494-1.458a1 1 0 0 1 1.732-.168 9.656 9.656 0 0 0 7.18 4.086 5.487 5.487 0 0 1 3.525-5.163 5.473 5.473 0 0 1 5.607 1.036 9.893 9.893 0 0 0 2.29-1.204zm-2.275 3.31a.999.999 0 0 1-1.043-.302 3.476 3.476 0 0 0-3.866-.969 3.49 3.49 0 0 0-2.238 3.316v1.001a1 1 0 0 1-.974 1.001 11.65 11.65 0 0 1-8.62-3.49c-.395 1.707-.424 3.467.104 5.092.676 2.084 2.226 3.775 4.897 4.964.716.319.804 1.302.155 1.743a12.628 12.628 0 0 1-3.629 1.699c7.678 2.023 15.066-3.082 15.066-12.037a3.51 3.51 0 0 0-.062-.646 1.002 1.002 0 0 1 .28-.901c.222-.22.429-.455.617-.702-.226.084-.455.16-.687.23zM1111.23 27.727v-2.182c0-3.615 2.893-6.545 6.462-6.545h3.23c.595 0 1.077.488 1.077 1.09v4.365c0 .602-.482 1.09-1.076 1.09h-3.231v2.182h3.23c.701 0 1.215.667 1.045 1.356l-1.077 4.363a1.08 1.08 0 0 1-1.044.827h-2.154v7.636c0 .603-.482 1.091-1.077 1.091h-4.307a1.084 1.084 0 0 1-1.077-1.09v-7.637h-2.154a1.084 1.084 0 0 1-1.077-1.091v-4.364c0-.602.482-1.09 1.077-1.09h2.154zm8.616-6.545h-2.154c-2.379 0-4.308 1.953-4.308 4.363v3.273c0 .603-.482 1.091-1.076 1.091h-2.154v2.182h2.154c.594 0 1.076.488 1.076 1.09v7.637h2.154v-7.636c0-.603.482-1.091 1.077-1.091h2.39l.538-2.182h-2.928a1.084 1.084 0 0 1-1.077-1.09v-3.274c0-1.205.964-2.181 2.154-2.181h2.154v-2.182z"/>
        </g>
        <g fill="#505050" fill-opacity=".15" fill-rule="nonzero">
            <path d="M0 64h1440v1H0z"/>
        </g>
        <g fill="#505050" fill-opacity=".15" fill-rule="nonzero">
            <path d="M0 0h1440v1H0z"/>
        </g>
        <g>
            <g transform="translate(170 17)">
                <mask id="h" fill="#fff">
                    <use xlink:href="#g"/>
                </mask>
                <g fill="#000" fill-opacity=".6" mask="url(#h)">
                    <path d="M0-.845h83.988v32H0z"/>
                </g>
            </g>
        </g>
        <g fill="#000">
            <text fill-opacity=".6" font-family="Roboto-Bold, Roboto" font-size="16" font-weight="bold" transform="translate(735 96)">
                <tspan x="284" y="255">SKY Empresas</tspan>
            </text>
            <text fill-opacity=".87" font-family="Roboto-Regular, Roboto" font-size="14" transform="translate(735 336)">
                <tspan x="0" y="45">Dúvidas frequentes</tspan> <tspan x="0" y="75">Central de ajuda</tspan> <tspan x="0" y="105">Manuais</tspan> <tspan x="0" y="135"> </tspan>
            </text>
            <text fill-opacity=".6" font-family="Roboto-Bold, Roboto" font-size="16" font-weight="bold" transform="translate(735 336)">
                <tspan x="0" y="15">Ajuda</tspan>
            </text>
            <text fill-opacity=".87" font-family="Roboto-Regular, Roboto" font-size="14" transform="translate(1019 96)">
                <tspan x="0" y="45">Conselho aos usuários</tspan> <tspan x="0" y="75">Pesquisa Anatel</tspan> <tspan x="0" y="105">Relatórios de transparência</tspan> <tspan x="0" y="135">Responsabilidade Social</tspan> <tspan x="0" y="165">Acessibilidade </tspan>
            </text>
            <text fill-opacity=".6" font-family="Roboto-Bold, Roboto" font-size="16" font-weight="bold" transform="translate(1019 96)">
                <tspan x="0" y="15">Nossas responsabilidades</tspan>
            </text>
            <g>
                <text fill-opacity=".87" font-family="Roboto-Regular, Roboto" font-size="14" transform="translate(735 96)">
                    <tspan x="0" y="45">Nossa história</tspan> <tspan x="0" y="75">Imprensa</tspan> <tspan x="0" y="105">Prêmios conquistados</tspan> <tspan x="0" y="135">Credenciamento</tspan> <tspan x="0" y="165">Trabalhe com a gente</tspan> <tspan x="0" y="195">Promoção</tspan>
                </text>
                <text fill-opacity=".6" font-family="Roboto-Bold, Roboto" font-size="16" font-weight="bold" transform="translate(735 96)">
                    <tspan x="0" y="15">Sobre</tspan>
                </text>
            </g>
        </g>
    </g>
</svg>
